<svg id="_лой_1" data-name="‘лой_1" xmlns="http://www.w3.org/2000/svg" viewBox="0 0 1179.11 927.86"><defs><style>.cls-1{fill:#ebf3fa;}.cls-2{fill:#7599ea;}.cls-3{fill:#90aff4;}.cls-4{fill:#aec3ff;}.cls-5,.cls-6{fill:#5888dd;}.cls-6{opacity:0.4;}.cls-7{fill:#739af0;}.cls-8{fill:#607cf4;}.cls-9{fill:#e9f3fe;}.cls-10{fill:#f77d48;}.cls-11{fill:#e6efff;}.cls-12{fill:#ffb27d;}.cls-13{fill:#ed7d2b;}.cls-14{fill:#113c68;}.cls-15{fill:#2a4e96;}.cls-16{fill:#233862;}.cls-17{fill:#15447c;}.cls-18{fill:#f99746;}.cls-19{fill:#fca56b;}.cls-20{fill:#163560;}.cls-21{fill:#1f4d84;}.cls-22{opacity:0.5;}.cls-23{fill:#b3cff9;}.cls-24{fill:#1f447f;}.cls-25{fill:#1c3154;}.cls-26{fill:#fff;}.cls-27{fill:#b5453c;}.cls-28{fill:#e8945b;}.cls-29{font-size:215.69px;}.cls-29,.cls-31{fill:#726868;font-family:SourceSansPro-Black, Source Sans Pro;font-weight:800;}.cls-30{letter-spacing:-0.01em;}.cls-31{font-size:72px;}.cls-32{letter-spacing:-0.01em;}.cls-33{letter-spacing:-0.03em;}</style></defs><path class="cls-1" d="M1163.11,856.6c-64.62,0-938.33-1.89-938.33-2-.36-.85-110.92-136.35,28.29-278,69-70.2-63.34-161.14,0-239.22,108.51-133.75,215.86-58.42,305.3-96C574.18,234.7,590,224,605.91,207.61a176.64,176.64,0,0,1,29.21-24.25c1.6-1.07,3.23-2.12,4.87-3.13a191.78,191.78,0,0,1,19.49-10.58q6.75-3.19,13.76-5.89h0a224.2,224.2,0,0,1,22.81-7.43,259,259,0,0,1,34-6.68c5.06-.65,10.17-1.17,15.3-1.56,99.94-7.51,212.4,34.75,270.44,96.51,11.69,12.44,64.82,76.79,22.94,165.24-26.45,55.85,84.34,109.19,123.7,173C1262.55,744.93,1164,854.49,1163.11,856.6Z" transform="translate(-107.76 -56.93)"/><path class="cls-2" d="M609.29,581.12,587.58,839.2s-2.27,15.65,9.36,15.67c19.14,0,95.24,0,95.24,0s-14.4-3.25-14.23-10.58c.21-8.64,25.37-265.61,25.37-265.61Z" transform="translate(-107.76 -56.93)"/><path class="cls-3" d="M699.34,850.3c-3.76,0-77.44.13-96.07-.11-8.12-.1-9.54-7.22-9.61-11.83a23.38,23.38,0,0,1,.25-3.84l.56-6.71,1.44-17.09,1.27-15.11,1.63-19.41,1.38-16.38,15.42-183.39,94-2.44s-10.6,107.55-18.1,185.83c-.84,8.72-1.63,17.09-2.37,24.89-.24,2.49-.46,4.93-.69,7.3-.69,7.41-1.33,14.21-1.88,20.22-.29,3.16-.56,6.1-.81,8.8-.95,10.56-1.51,17.3-1.52,18.58a11.46,11.46,0,0,0,.18,2.09C686,849.92,697.93,850.3,699.34,850.3Z" transform="translate(-107.76 -56.93)"/><polygon class="cls-4" points="273.16 383.75 326.03 596.12 333.27 625.21 357.89 724.12 815.38 724.12 724.62 383.75 273.16 383.75"/><polygon class="cls-3" points="273.16 383.75 265.83 386.19 348.15 731.51 357.9 724.12 273.16 383.75"/><polygon class="cls-2" points="348.15 731.51 802.83 731.51 815.38 724.12 357.9 724.12 348.15 731.51"/><rect class="cls-4" x="615.58" y="850.3" width="98.44" height="4.68" transform="translate(1221.85 1648.34) rotate(180)"/><polygon class="cls-5" points="581.24 731.51 580.73 735.09 488.15 753.79 489.42 738.68 490.03 731.51 581.24 731.51"/><path class="cls-6" d="M699.34,850.3c-3.76,0-77.44.13-96.07-.11-8.12-.1-9.54-7.22-9.61-11.83L685.8,821c-.95,10.56-1.51,17.3-1.52,18.58a11.46,11.46,0,0,0,.18,2.09C686,849.92,697.93,850.3,699.34,850.3Z" transform="translate(-107.76 -56.93)"/><polygon class="cls-4" points="273.16 383.75 724.62 383.75 797.87 657.3 341.26 657.3 273.16 383.75"/><polygon class="cls-7" points="776.58 645.45 353.87 645.45 338.77 585.27 332.92 561.99 330.54 552.5 315.02 490.66 314.21 487.44 306 454.75 302.33 440.13 299.2 427.65 291.86 398.4 708.47 398.4 716.53 427.65 719.97 440.13 724 454.75 750.57 551.1 750.57 551.11 752.82 559.27 753.86 563.06 772.2 629.58 776.58 645.45"/><polygon class="cls-8" points="716.53 427.65 299.2 427.65 291.86 398.4 708.47 398.4 716.53 427.65"/><path class="cls-9" d="M416.86,468.55a2.76,2.76,0,0,1,2.74-3.66,5,5,0,0,1,4.57,3.66,2.77,2.77,0,0,1-2.75,3.66A5,5,0,0,1,416.86,468.55Z" transform="translate(-107.76 -56.93)"/><path class="cls-9" d="M429,468.55a2.77,2.77,0,0,1,2.75-3.66,5,5,0,0,1,4.57,3.66,2.77,2.77,0,0,1-2.75,3.66A5,5,0,0,1,429,468.55Z" transform="translate(-107.76 -56.93)"/><path class="cls-9" d="M442.09,468.55a2.76,2.76,0,0,1,2.74-3.66,5,5,0,0,1,4.57,3.66,2.77,2.77,0,0,1-2.75,3.66A5,5,0,0,1,442.09,468.55Z" transform="translate(-107.76 -56.93)"/><path class="cls-10" d="M733.36,285.29c17.08-20.06,43.43-60.35,61.17-81a6.54,6.54,0,0,0-5-10.8H757.26l30.45-68.84a2.7,2.7,0,0,0-4.63-2.71l-73.61,98.53a4.07,4.07,0,0,0,3.76,6.48l36.54-4.5L728,282.18A3.13,3.13,0,0,0,733.36,285.29Z" transform="translate(-107.76 -56.93)"/><path class="cls-4" d="M581.4,407.47c3.84-19.71,6.27-56.33,10.33-76.67a5,5,0,0,0-7.35-5.31l-21.44,12.07-5.53-57.11a2.06,2.06,0,0,0-4.09-.06l-12,93a3.11,3.11,0,0,0,4.93,2.9l22.58-16.66,7.9,47.8A2.39,2.39,0,0,0,581.4,407.47Z" transform="translate(-107.76 -56.93)"/><path class="cls-11" d="M902.8,708.2,535.51,739.14c-27.89,2.35-48.08-26.08-36.66-51.63L654.46,339.25c11.81-26.42,48.09-29.47,64.15-5.4L930.3,651.16C945.83,674.44,930.69,705.85,902.8,708.2Z" transform="translate(-107.76 -56.93)"/><path class="cls-10" d="M904,722.09,536.68,753a50.71,50.71,0,0,1-50.56-71.22L641.73,333.56a50.71,50.71,0,0,1,88.48-7.45L941.9,643.42A50.71,50.71,0,0,1,904,722.09ZM686.11,331.51a22.54,22.54,0,0,0-18.92,13.43L511.58,693.2a22.82,22.82,0,0,0,22.75,32l367.3-30.94A22.83,22.83,0,0,0,918.7,658.9L707,341.59A22.55,22.55,0,0,0,686.11,331.51Z" transform="translate(-107.76 -56.93)"/><path class="cls-10" d="M677.51,654.92a33.46,33.46,0,0,1,1.43-13.34,30.71,30.71,0,0,1,6.28-11,33,33,0,0,1,10.55-7.82A41.11,41.11,0,0,1,710.22,619a41.94,41.94,0,0,1,15,1.23A32.87,32.87,0,0,1,737,626.18a30.88,30.88,0,0,1,8,9.83,33.6,33.6,0,0,1,3.64,12.91,32.78,32.78,0,0,1-1.44,13.23A31,31,0,0,1,741,673.08a32.55,32.55,0,0,1-10.67,7.83,41.86,41.86,0,0,1-14.56,3.72,40.9,40.9,0,0,1-14.86-1.24,32.94,32.94,0,0,1-11.72-5.94,31,31,0,0,1-8-9.73A32.71,32.71,0,0,1,677.51,654.92Zm56.78-66.45-52.9,4.46L658.66,412.79l67.9-5.72Z" transform="translate(-107.76 -56.93)"/><path class="cls-12" d="M449.43,599.52s1.15-2.59,1.9-3.82,3.93-4.82,4.47-4,2.71,6.28,1.56,7.82.08,4.2-5.66,5.81Z" transform="translate(-107.76 -56.93)"/><path class="cls-13" d="M385.73,583.16s29.34,24.5,40.78,22.23c8.95-1.77,23.1-6.26,23.1-6.26s3.73,3.55,2.67,7.81c0,0-18,16.95-30.86,17.06-20.07.17-29.53-9.94-29.53-9.94Z" transform="translate(-107.76 -56.93)"/><path class="cls-14" d="M334.26,841.53s.86,13.74,3.52,13.94c.35,0,13.48,0,13.48,0l16.76-.1s-.11-4-5-4.89-13.1-4.29-16.07-10.77C343.82,832.92,334.26,841.53,334.26,841.53Z" transform="translate(-107.76 -56.93)"/><path class="cls-15" d="M333.3,842.48a34.79,34.79,0,0,0,9.07,1.71,33.25,33.25,0,0,0,8.47-1.21s1-9.28,6.24-29.72c2.77-10.71,6.72-24.49,12.34-41.61,15.55-47.3,20.28-75,20.71-77.6l0-.21-.05,0-47.8-21s5.91,65.2-1.63,90.23a105.43,105.43,0,0,0-2.73,12C333.19,802.23,333.3,842.48,333.3,842.48Z" transform="translate(-107.76 -56.93)"/><path class="cls-16" d="M357.08,813.26c2.77-10.71,6.72-24.49,12.34-41.61,15.55-47.3,20.28-75,20.71-77.6a1.79,1.79,0,0,0,0-.23l-47.8-21s5.91,65.2-1.63,90.23C339.63,766.56,357.08,813.26,357.08,813.26Z" transform="translate(-107.76 -56.93)"/><path class="cls-17" d="M371.6,841.53s.85,13.74,3.51,13.94c.35,0,13.48,0,13.48,0l16.76-.1s-.11-4-5-4.89-13.1-4.29-16.06-10.77C381.15,832.92,371.6,841.53,371.6,841.53Z" transform="translate(-107.76 -56.93)"/><path class="cls-15" d="M398.7,674.37A680.65,680.65,0,0,1,392,768.5c-7.31,51.87-4.83,73.89-4.83,73.89a50.51,50.51,0,0,1-7.05,1.8A32,32,0,0,1,369.67,843s-10.46-51.9-7.46-77.87S347.88,676,347.88,676Z" transform="translate(-107.76 -56.93)"/><path class="cls-12" d="M364.81,575.5l9.33,6.12,8.49-2.41c1.56-2.21,2-6.49,2-10.19a64.78,64.78,0,0,0-.33-6.78l-12.59-5.56-4.7-2.07c0,.08.37,3.86.42,4.41A32.14,32.14,0,0,1,364.81,575.5Z" transform="translate(-107.76 -56.93)"/><path class="cls-18" d="M398.91,686.12c-11.61,11.21-55.56,9.32-58.27-3s2.95-105.17,22.79-111c4.12-1.21,26.13,5.91,26.13,5.91a139.33,139.33,0,0,1,5.71,20.53c.44,2.24,1.73,26,2.69,48.15.44,10.37.82,20.42,1,27.78C399.15,681.34,399.16,685.87,398.91,686.12Z" transform="translate(-107.76 -56.93)"/><path class="cls-19" d="M368.36,559.2c2.55,4.31,11.51,8.09,16.26,9.82a64.78,64.78,0,0,0-.33-6.78l-12.59-5.56C368.92,556.65,367.22,557.27,368.36,559.2Z" transform="translate(-107.76 -56.93)"/><path class="cls-12" d="M389,561.47s-20.29,6.33-24-6.36-8.89-20.43,3.9-25,16.75-.48,19,3.45S394.22,559.5,389,561.47Z" transform="translate(-107.76 -56.93)"/><path class="cls-20" d="M387.15,532.34s-1.3,14.77-4.35,14.13-6.42-2-6,2.44-3,12.08-7.38,12.06c-9.44,0-19.7-24.28-17.12-28.87C359.79,518.84,397.93,516.16,387.15,532.34Z" transform="translate(-107.76 -56.93)"/><path class="cls-13" d="M384.16,572.41c-.26-.11-15.1-6.76-16.83-6.19s-3.9,5.87-3.9,5.87L389.56,578S387.5,573.82,384.16,572.41Z" transform="translate(-107.76 -56.93)"/><path class="cls-21" d="M476.54,644.29,393.36,722.6c-1.63,1.53-3.68,2-4.57,1.09l-2.8-3c-.89-.93-.27-3,1.36-4.49l83.17-78.31c1.63-1.53,3.69-2,4.57-1.09l2.81,3C478.78,640.73,478.17,642.76,476.54,644.29Z" transform="translate(-107.76 -56.93)"/><path class="cls-7" d="M429.86,688.24l-36.5,34.36c-1.63,1.53-3.68,2-4.57,1.09l-2.8-3c-.89-.93-.27-3,1.36-4.49l36.49-34.36Z" transform="translate(-107.76 -56.93)"/><path class="cls-21" d="M457.42,614.72a65.19,65.19,0,1,0,108.05-65.51l-1-1a65.19,65.19,0,0,0-107,66.5Zm18.63-60.16a60,60,0,1,1,2.59,84.88A60,60,0,0,1,476.05,554.56Z" transform="translate(-107.76 -56.93)"/><g class="cls-22"><path class="cls-23" d="M563.51,636.84A60.05,60.05,0,1,1,560.92,552,59.74,59.74,0,0,1,563.51,636.84Z" transform="translate(-107.76 -56.93)"/></g><path class="cls-13" d="M399,674.46c-45.83-32.66-42-76.24-42-76.24,16.75,9.45,33.37,30.34,41,48.46C398.4,657.05,398.78,667.1,399,674.46Z" transform="translate(-107.76 -56.93)"/><path class="cls-12" d="M444.21,659.58a12.51,12.51,0,0,0,5.85-3.61s1.38.09-.22,3c-.14.25-.44.88-.66,1.33a.29.29,0,0,0,.24.41c1.86.14,3.74-.6,7.33.15.5.1.64,1.29.62,1.8a4.61,4.61,0,0,1-1,3.13c-.58.76-2.2,1.58-5.79,3-1.37.55-5.29.13-9-1.13l-2.94-1.35.91-5.46.74.16C441.54,661.31,443,659.88,444.21,659.58Z" transform="translate(-107.76 -56.93)"/><path class="cls-18" d="M371.18,578S330,585.84,383.3,645.47c8.52,9.54,54.57,22,54.57,22s4.67-4,2.32-7.2c0,0-31.71-23-38.69-26.68-3.14-1.65-12.18-36.75-17.29-45.2A23.06,23.06,0,0,0,371.18,578Z" transform="translate(-107.76 -56.93)"/><path class="cls-12" d="M450.55,600.24a21.38,21.38,0,0,0,1.61-3.93,21.94,21.94,0,0,1,2.65-6c.28-.27,1.21.09,1.31,1.29a6.76,6.76,0,0,1-.66,2.6c-.73,1.84-.61,4.34-.87,5.18C454,601.43,450.55,600.24,450.55,600.24Z" transform="translate(-107.76 -56.93)"/><path class="cls-20" d="M816,540.37c-6.45-2.14-10.91.56-10.91.56-18.57.77-19.26,19.8-17.08,26.88,3.06,9.94-7.77,17.79,4.25,21.81,13.93,4.67,25.63-.87,24.83,1.54C861.15,594.63,830.65,545.24,816,540.37Z" transform="translate(-107.76 -56.93)"/><path class="cls-18" d="M796.73,632.93a49.28,49.28,0,0,1-5,7.51c-3.86,4.83-24.1-6.64-22.35-7.51s11.91-30.18,14.33-33.86,10.68-5.59,10.68-5.59Z" transform="translate(-107.76 -56.93)"/><path class="cls-24" d="M865,830.57s5.58,5.1,4.49,8.72-6.13,6-6.81,10.47-3.41,6.84-5.86,6.84H845.17s-1.81-3.11,2.55-4.05,6-6.15,5.73-11a85.51,85.51,0,0,1,.41-11.27l9.27-2.14Z" transform="translate(-107.76 -56.93)"/><path class="cls-25" d="M817.75,832.74s2,21.6-.45,22.8l-31.39-.06s0-3.62,5.05-4.43,13.9-3.76,15.39-10.33S817.75,832.74,817.75,832.74Z" transform="translate(-107.76 -56.93)"/><path class="cls-18" d="M841.89,618.36a124.42,124.42,0,0,1,0,14.51c-.31,5.24-5.61,12.27-6.37,14-1.88,4.36-4,5.07-4,5.07L815,656l-5.79,1.42L791,652s-8.32-23.24-5-36.31a100.29,100.29,0,0,1,8.45-22.16s12.42-2.8,34.33-1.24Z" transform="translate(-107.76 -56.93)"/><path class="cls-13" d="M843.46,633.05c-.31,5.25-7.18,12.09-7.94,13.83-1.88,4.36-4,5.07-4,5.07L815,656l-3-8.53s24.08-6.33,20.21-28.62Z" transform="translate(-107.76 -56.93)"/><path class="cls-16" d="M792.12,655.47s-9,28.17-9.64,37.76,17.3,136.25,18,140.67c.68,4.16,5.85,6.82,5.85,6.82a7.85,7.85,0,0,0,5.78.44c4.71-1.33,6.2-2.92,6.2-2.92s7-90.33,2.68-122.59a510.9,510.9,0,0,1-4.41-60.18Z" transform="translate(-107.76 -56.93)"/><path class="cls-15" d="M830.46,654.63s13.8,18.53,15.09,31,2,56.5,4.76,68.71,12.82,35.69,12.82,73.77a7.6,7.6,0,0,1-4.28,3.34,36.26,36.26,0,0,1-3.77,1,5.93,5.93,0,0,1-6.62-3.14c-6.81-13.71-28.5-57.94-29.61-67.12-.79-6.5-7.64-49.5-22.58-74.73-3.59-6.06,2.2-30.14,2.2-30.14Z" transform="translate(-107.76 -56.93)"/><path class="cls-16" d="M790.67,651.13s3.63,2.87,10.85,3c8.62.18,30-2.19,30-2.19a17.61,17.61,0,0,1,.91,5.45s-26.09,6.58-41.2,1C791.21,658.36,789.26,654.69,790.67,651.13Z" transform="translate(-107.76 -56.93)"/><path class="cls-26" d="M799.45,661.57a4.48,4.48,0,1,1,3.94-4.45A4.21,4.21,0,0,1,799.45,661.57Zm0-7.6a3.2,3.2,0,1,0,2.63,3.15A2.93,2.93,0,0,0,799.45,654Z" transform="translate(-107.76 -56.93)"/><polygon class="cls-27" points="710.54 612.74 671.33 613.11 652.03 567.76 691.25 567.4 710.54 612.74"/><path class="cls-12" d="M813.17,649.18l-2.87-3.53a10.07,10.07,0,0,0-3.36-2c-1.41-.3-4.39-2-4.68-1.53s2.29,3.94,2.29,3.94l.13,0c-3,2.22-10.43.26-11.36,1.17-1.11,1.1,1.54,3.48,3,4.81s5.5,3.57,8.68,2.58c2.32-.72,6-1.46,6-1.46Z" transform="translate(-107.76 -56.93)"/><path class="cls-12" d="M762.74,632.67s2.47-2.8,4-1.46-.41,8-1.9,7.28S761.88,633.49,762.74,632.67Z" transform="translate(-107.76 -56.93)"/><path class="cls-18" d="M828.75,592.24S840,593.48,848,608.11c6.35,11.55,17.21,32.82,13.12,38.83-1.8,2.64-19,12-52.31,6.67,0,0,.52-4.21,3.21-6.15,0,0,28-9,27.94-10.78-.09-3.38-3.78-6.3-19.42-21.94C816.32,610.49,828.75,592.24,828.75,592.24Z" transform="translate(-107.76 -56.93)"/><path class="cls-12" d="M820.11,592.83c.39-.52-.11-2.17-.73-5.24a57.26,57.26,0,0,1-1.48-11.92l-.83.14-13.91,2.34s.31,3.72.32,7.22v.09c0,3-.82,7.64.21,8.24C809,596.79,818.63,594.82,820.11,592.83Z" transform="translate(-107.76 -56.93)"/><path class="cls-28" d="M803.16,578.15s.27,5.24.28,8.75c7.79-.19,11.94-7.75,13.63-11.09Z" transform="translate(-107.76 -56.93)"/><path class="cls-12" d="M802.32,584.4s18.24-2.6,16.44-13.93-.64-19.3-12.36-18.12-13.3,5.86-13.62,9.79S797.53,584.79,802.32,584.4Z" transform="translate(-107.76 -56.93)"/><path class="cls-20" d="M798.07,553.39s7.1,12.5,15,13.25,11-1.83,11-1.83A21.89,21.89,0,0,1,815,553.15S800.82,546.47,798.07,553.39Z" transform="translate(-107.76 -56.93)"/><path class="cls-20" d="M799.47,554.27s-3.47,2-4.56,4.91a18.47,18.47,0,0,0-.8,10.79s-5.19-8.43-1.79-14.22C795.93,549.62,799.47,554.27,799.47,554.27Z" transform="translate(-107.76 -56.93)"/><rect class="cls-16" x="81.26" y="798.04" width="1013.55" height="3.26" rx="1.63"/><text class="cls-29" transform="translate(48.41 320.85) rotate(-15.69)">OO<tspan class="cls-30" x="298.51" y="0">P</tspan><tspan x="427.49" y="0">S</tspan></text><text class="cls-31" transform="translate(12.01 904.39)">se ha p<tspan class="cls-32" x="221.47" y="0">r</tspan><tspan x="250.84" y="0">oducido un er</tspan><tspan class="cls-32" x="691.62" y="0">r</tspan><tspan x="721" y="0">or inespe</tspan><tspan class="cls-33" x="1018.5" y="0">r</tspan><tspan x="1046.43" y="0">ado</tspan></text></svg>