<?xml version="1.0" encoding="utf-8"?>
<!-- Generator: Adobe Illustrator 24.1.0, SVG Export Plug-In . SVG Version: 6.00 Build 0)  -->
<svg version="1.1" id="Capa_1" xmlns="http://www.w3.org/2000/svg" xmlns:xlink="http://www.w3.org/1999/xlink" x="0px" y="0px"
	 viewBox="0 0 1366 768" style="enable-background:new 0 0 1366 768;" xml:space="preserve">
<style type="text/css">
	.st0{fill:url(#SVGID_1_);}
	.st1{opacity:0.1;fill:#9EBEE5;}
	.st2{fill:#276753;}
	.st3{fill:#3C8F7C;}
	.st4{fill:#317F6B;}
	.st5{fill:#55B9A2;}
	.st6{fill:#9AD1C5;}
	.st7{fill:#F3A292;}
	.st8{fill:#35548A;}
	.st9{fill:#F08460;}
	.st10{fill:#133759;}
	.st11{fill:#F7CC7F;}
	.st12{fill:#F18B7F;}
	.st13{fill:#EE745A;}
	.st14{fill:#184655;}
	.st15{fill:#F4A392;}
	.st16{fill:#476EB4;}
	.st17{fill:#F3A290;}
	.st18{fill:#FFFFFF;}
	.st19{fill:#DD513A;}
	.st20{fill:#DF963D;}
	.st21{fill:#0E2E35;}
	.st22{fill:#ED745A;}
	.st23{fill:#F08560;}
	.st24{fill:#6A96CD;}
	.st25{fill:#9EBEE5;}
</style>
<linearGradient id="SVGID_1_" gradientUnits="userSpaceOnUse" x1="452.792" y1="167.2476" x2="452.792" y2="-0.0752">
	<stop  offset="0" style="stop-color:#EE785C"/>
	<stop  offset="1" style="stop-color:#E73768"/>
</linearGradient>
<path class="st0" d="M1.01,132.51c0,0,283.44,92.29,519.15-24.02S904.57,0.04,904.57,0.04L1.01-0.08V132.51z"/>
<g>
	<path class="st1" d="M522.57,732.22h762.17c63.17-52.7,30.66-211.27-22.1-243.42c-56.8-34.6,33.39-154.27-54.1-193.12
		c-57.13-25.36-147.99,2.28-135.77-65.57c16.95-94.09-181.14-118.2-327.08-92.84c-157.77,27.42-13.7,162.24-187.2,189.4
		c-89.22,13.97-71.98,133.47-63.66,158.16c7.25,21.51,55.18,55.62-11.44,102.6C385.71,656.33,520.27,730.96,522.57,732.22z"/>
	<g>
		<g>
			<path class="st2" d="M1199.58,329.74c0,0-12.48,27.16-20.87,38.64c-8.4,11.47-16.39,22.45-23.09,54.29
				c-6.7,31.85-5.55,35.05-7.38,43.27c-1.83,8.23-13.77,41.55-13.84,47.66c-0.07,6.11-24.12,40.9-30.28,57.18
				c-6.16,16.28-17.07,39.54-16.46,51.38l2.74-0.7c0,0,2.23-27.61,21.24-55.51c19.01-27.9,16.29-33.17,37.88-47.51
				c21.59-14.33,35.53-53.93,35.53-53.93s21.96-43.01,20.94-65.37C1204.96,376.79,1210.79,356.62,1199.58,329.74z"/>
			<path class="st2" d="M1170.36,287.96c0,0-0.73,17.84-6.48,28.44c-5.76,10.6-10.71,17.04-11.76,28.51
				c-1.05,11.47-4.66,41.03-20.71,55.47c-16.05,14.43-18.1,57.68-30.31,70.77c-12.22,13.08-13.81,22.49-11.56,44.93
				c2.26,22.44,9.92,53.54-7.8,94.13l-4.01-10.1c0,0,12.68-33.39,9.61-52.95c-3.07-19.55-13.75-49.1-9.84-63.27
				c3.91-14.17-10.63-16.94-1.87-38.37c8.75-21.43,5.16-28.88,17.07-47.41c0,0,1.22-0.87,4.36-16.55
				c3.13-15.68,28.39-44.41,40.03-54.22C1148.72,317.54,1165.49,301.82,1170.36,287.96z"/>
			<path class="st3" d="M1122.95,376.3c0,0-13.94,23.86-14.14,39.22c-0.2,15.36,1.47,27.85-5.59,48.88
				c-7.05,21.03,6.95,34.33,2.91,45.94c-4.03,11.61-4.35,25.36-4.22,35.79c0.12,10.43-15.96,44.93-18.41,62.4
				c-2.45,17.47,0.68,17.53,0.68,17.53s2.67-23.07,6.37-30.69c3.7-7.63,14.96-33.92,17.59-44.1c2.63-10.17,9.76-16.7,15.9-33.93
				c6.15-17.23,14.89-31.74,14.22-56.19C1137.6,436.7,1147.43,410.9,1122.95,376.3z"/>
			<path class="st3" d="M1093.44,610.05c0,0,6.5-30.28,33.91-33.31c27.41-3.02,43.51,2.39,62.87-19.73
				c19.36-22.12,30.61-57.24,36.79-63.28c0,0-9.73-5-25.9,10.12c-16.17,15.12-27.53,26.59-36.9,35.39
				c-9.36,8.8-16.97,3.06-26.85,8.87c-8.28,4.86-19,18.92-23.72,26.28c-1.53,2.39-3.35,4.59-5.44,6.51c-1.9,1.75-4.16,3.9-5.61,5.48
				c-2.9,3.16-11.27,23.77-11.27,23.77L1093.44,610.05z"/>
			<path class="st3" d="M1083.78,604.71c0,0,9.66-37.04,3.19-55.16c-6.47-18.12-26.72-31.54-25.91-42.92
				c0.81-11.38,13.82-42.16,3.22-65.07c0,0-4.03,20.43-8,24.98c-3.97,4.55-31.25,22.88-26.41,47.09c4.84,24.21,31.35,29.87,37.88,37
				c6.53,7.13,15.35,7.12,15.4,11.86c0.06,4.74,1.78,21.97-1.15,38.97L1083.78,604.71z"/>
			<path class="st4" d="M1094.34,579.93l13.57-39.09c0,0,7.97-31.44,12.59-57.66c4.62-26.22,2.44-106.88,2.44-106.88
				s-13.94,23.86-14.14,39.22c-0.2,15.36,1.47,27.85-5.59,48.88c-7.05,21.03,6.95,34.33,2.91,45.94
				c-4.03,11.61-4.35,25.36-4.22,35.79c0.12,10.43-15.96,44.93-18.41,62.4c-1.34,9.57-1.01,13.91-0.43,15.88
				C1080.89,609.14,1094.34,579.93,1094.34,579.93z"/>
			<path class="st4" d="M1161.18,556.64c-12.1,2.42-22.93,1.59-37.3,12.29c-14.37,10.7-22.82,22.12-22.82,22.12
				s-6.46,11.54-9.13,17.63c-0.39,0.93-0.61,1.48-0.61,1.48l2.12-0.11c0,0,6.5-30.28,33.91-33.31c27.41-3.02,43.51,2.39,62.87-19.73
				c19.36-22.12,30.61-57.24,36.79-63.28c0,0-20.59,16.02-33.32,30.2C1180.97,538.11,1173.29,554.22,1161.18,556.64z"/>
			<path class="st4" d="M1056.28,466.55c-3.97,4.55-31.25,22.88-26.41,47.09c4.84,24.21,31.35,29.87,37.88,37
				c6.53,7.13,15.35,7.12,15.4,11.86c0.06,4.74,1.78,21.97-1.15,38.97l0.78,1.42c1.43-6.64,3.42-16.74,4.06-24.41
				c1.05-12.46-0.97-17.62-4.97-27.72c-4.01-10.1-28.89-30.66-35.13-41.47c-6.24-10.81,12.03-28.88,16.08-37.61
				c4.05-8.72,1.46-30.11,1.46-30.11S1060.25,462,1056.28,466.55z"/>
		</g>
		<g>
			<path class="st5" d="M1120.98,586.82l4.26-10.3c3.31-7.57,11.76-11.19,18.89-8.08l0,0c17.96,7.84,25.77,29.67,17.44,48.75
				l-6.09,13.95c-2.67,6.11-1.74,12.84,1.86,17.58c3.27,4.31,3.8,10.29,1.54,15.48l-3.21,7.36c-3.48,7.96-10.24,13.86-18.26,16.29
				c-4.69,1.42-8.83,4.94-11.03,9.96l-4.55,10.41c-5.03,11.51-17.89,17.01-28.73,12.28l-6.18-2.7
				c-10.84-4.73-15.55-17.9-10.53-29.42l0,0c8.13-13.77,7.48-24.04,4.6-31.01c-4.23-10.25-4.19-22.04,0.4-32.53l0.64-1.47
				c4.84-11.08,14.17-19.35,25.29-22.89C1112.24,598.93,1117.35,595.12,1120.98,586.82z"/>
			<path class="st6" d="M1044.27,732.22c8.72-11.3,56.52-71.86,87.7-81.95c34.41-11.14,1.98,33.1,1.98,33.1s61.04-66.74,83.44-60.73
				c20.53,5.52,0,46.89,0,46.89s23.13-22.91,51.17-22.91c27.29,0-19.07,81.25-21.57,85.6H1044.27z"/>
			<g>
				<g>
					<path class="st3" d="M1228.21,601.23c-24.94,38.95-43.14,82.22-53.55,128.18l-1.71-0.46c10.36-45,28.44-88.19,53.34-127.1
						c5.79-9.04,12.03-19.77,22.87-23.3c0.21-0.07,0.29,0.25,0.09,0.32C1239.36,582.61,1233.63,592.77,1228.21,601.23z"/>
				</g>
				<g>
					<path class="st3" d="M1180.68,731.02c27.87-37.9,61.75-72.92,102.03-103.38c0.4-0.3,0.95,0.4,0.54,0.71
						c-38.21,29.37-72.01,64.05-100.46,103.24L1180.68,731.02z"/>
				</g>
				<path class="st3" d="M1230.49,577.07c0.64,0.94,3.1,3.41,3.82,6.64c0.97,3.07,0.2,6.91,0.12,6.78
					c-0.19,0.08,2.84-2.48,3.79-6.56c1.22-3.91,0.37-9.33-1.16-11.12c-2.63-4.06-7.23-4.47-8.12-2.5
					C1228,572.26,1229.2,574.92,1230.49,577.07z"/>
				<path class="st3" d="M1236.46,611.84c-0.93-0.66-3.34-3.17-6.57-3.95c-3.05-1.03-6.91-0.34-6.77-0.26
					c-0.08,0.18,2.54-2.79,6.63-3.66c3.93-1.15,9.33-0.18,11.1,1.38c4.01,2.71,4.33,7.32,2.34,8.17
					C1241.22,614.43,1238.58,613.17,1236.46,611.84z"/>
				<path class="st3" d="M1227.46,627.08c-0.93-0.66-3.34-3.17-6.57-3.95c-3.05-1.03-6.91-0.34-6.77-0.26
					c-0.08,0.18,2.54-2.79,6.63-3.66c3.93-1.15,9.33-0.18,11.1,1.38c4.01,2.71,4.33,7.32,2.34,8.17
					C1232.21,629.66,1229.58,628.41,1227.46,627.08z"/>
				<path class="st3" d="M1259.57,662.42c-0.93-0.66-3.34-3.17-6.57-3.95c-3.05-1.03-6.91-0.34-6.77-0.26
					c-0.08,0.18,2.54-2.79,6.63-3.66c3.93-1.15,9.33-0.18,11.1,1.38c4.01,2.71,4.33,7.32,2.34,8.17
					C1264.33,665.01,1261.69,663.75,1259.57,662.42z"/>
				<path class="st3" d="M1275.98,647.96c-0.93-0.66-3.34-3.17-6.57-3.95c-3.05-1.03-6.91-0.34-6.77-0.26
					c-0.08,0.18,2.54-2.79,6.63-3.66c3.93-1.15,9.33-0.18,11.1,1.38c4.01,2.71,4.33,7.32,2.34,8.17
					C1280.74,650.55,1278.1,649.3,1275.98,647.96z"/>
				<path class="st3" d="M1217.9,594.31c0.78,0.83,3.6,2.87,4.82,5.96c1.44,2.88,1.29,6.79,1.19,6.67c-0.17,0.1,2.42-2.9,2.71-7.07
					c0.59-4.05-1.11-9.27-2.89-10.8c-3.24-3.59-7.84-3.27-8.42-1.19C1214.68,589.96,1216.28,592.4,1217.9,594.31z"/>
				<path class="st3" d="M1204.66,611.59c1.11,0.59,5.01,1.66,6.96,4.58c2.22,2.59,2.5,7.03,2.35,6.94
					c-0.21,0.19,2.78-4.28,2.65-9.06c0.28-4.78-2.56-9.87-5.06-10.81c-4.63-2.62-10.55-0.28-11.04,2.29
					C1199.96,608.12,1202.33,610.15,1204.66,611.59z"/>
				<path class="st3" d="M1190.72,637.77c1.2,0.4,5.22,0.8,7.64,3.34c2.62,2.18,3.64,6.51,3.48,6.44c-0.17,0.22,2.02-4.68,1.08-9.37
					c-0.53-4.75-4.18-9.29-6.81-9.8c-5-1.8-10.45,1.5-10.5,4.11C1185.51,635.13,1188.19,636.73,1190.72,637.77z"/>
				<path class="st3" d="M1231.95,656c0.87,0.54,3.98,1.64,5.4,4.12c1.65,2.23,1.63,5.86,1.52,5.78c-0.18,0.14,2.5-3.32,2.67-7.22
					c0.5-3.87-1.52-8.17-3.5-9.08c-3.62-2.39-8.57-0.83-9.11,1.23C1228.33,652.9,1230.15,654.69,1231.95,656z"/>
				<path class="st3" d="M1253.42,583.2c-0.52-0.43-1.84-2.02-3.71-2.63c-1.76-0.74-4.07-0.5-4-0.45c-0.06,0.11,1.62-1.54,4.08-1.87
					c2.38-0.51,5.53,0.3,6.5,1.3c2.25,1.78,2.24,4.52,1.03,4.94C1256.12,584.94,1254.62,584.08,1253.42,583.2z"/>
				<path class="st3" d="M1248.42,572.08c0.02,0.68,0.48,2.69-0.19,4.54c-0.49,1.85-2.09,3.53-2.08,3.44
					c-0.12-0.02,2.21-0.35,3.98-2.09c1.85-1.57,3.14-4.56,2.94-5.94c-0.04-2.87-2.21-4.53-3.28-3.83
					C1248.69,568.88,1248.46,570.59,1248.42,572.08z"/>
				<path class="st3" d="M1287.79,633.24c-0.52-0.43-1.84-2.02-3.71-2.63c-1.76-0.74-4.07-0.5-4-0.45
					c-0.06,0.11,1.62-1.54,4.08-1.87c2.38-0.51,5.53,0.3,6.5,1.3c2.25,1.78,2.24,4.52,1.03,4.94
					C1290.5,634.98,1288.99,634.12,1287.79,633.24z"/>
				<path class="st3" d="M1281.76,622.02c0.08,0.67,0.69,2.64,0.19,4.54c-0.33,1.88-1.79,3.69-1.8,3.6
					c-0.12-0.01,2.18-0.53,3.79-2.41c1.72-1.72,2.75-4.8,2.44-6.17c-0.27-2.86-2.57-4.33-3.58-3.55
					C1281.77,618.81,1281.67,620.54,1281.76,622.02z"/>
			</g>
			<g>
				<g>
					<path class="st3" d="M1277.57,694.51c-25.46,2.79-49.18,14.03-72.01,24.99c-15.4,7.39-14.62,9.5-17.76,10.6
						c-0.51,0.18-1.02-0.37-0.77-0.86c1.21-2.39,4.37-4.01,6.57-5.38c2.56-1.6,5.24-3.01,7.95-4.33c5.81-2.82,11.77-5.36,17.7-7.93
						c12.05-5.24,24.3-10.16,37.03-13.5c6.98-1.83,14.08-3.15,21.27-3.79C1277.68,694.29,1277.7,694.5,1277.57,694.51
						L1277.57,694.51z"/>
				</g>
				<path class="st3" d="M1254.61,686.62c0.17,1.04,1.25,4.08,0.58,7.07c-0.4,2.96-2.56,5.87-2.57,5.73c-0.19-0.01,3.36-0.96,5.76-4
					c2.57-2.79,3.99-7.67,3.42-9.78c-0.6-4.44-4.3-6.6-5.82-5.3C1254.42,681.61,1254.38,684.31,1254.61,686.62z"/>
				<path class="st3" d="M1232.18,694.65c0.17,1.04,1.25,4.08,0.58,7.07c-0.4,2.96-2.56,5.87-2.57,5.73c-0.19-0.01,3.36-0.96,5.76-4
					c2.57-2.79,3.99-7.67,3.42-9.78c-0.6-4.44-4.3-6.6-5.82-5.3C1231.99,689.64,1231.95,692.34,1232.18,694.65z"/>
				<path class="st3" d="M1209.39,704.81c0.17,1.04,1.25,4.08,0.58,7.07c-0.4,2.96-2.56,5.87-2.57,5.73c-0.19-0.01,3.36-0.96,5.76-4
					c2.57-2.79,3.99-7.67,3.42-9.78c-0.6-4.44-4.3-6.6-5.82-5.3C1209.19,699.8,1209.15,702.5,1209.39,704.81z"/>
				<path class="st3" d="M1261.31,707.58c-0.46-0.86-1.35-3.71-3.52-5.54c-1.94-1.96-5.16-2.9-5.09-2.79
					c-0.13,0.11,3.01-1.17,6.48-0.27c3.45,0.62,7.22,3.43,7.98,5.3c2.03,3.61,0.52,7.26-1.33,7.15
					C1263.97,711.38,1262.43,709.41,1261.31,707.58z"/>
				<path class="st3" d="M1237.98,715.84c-0.46-0.86-1.35-3.71-3.52-5.54c-1.94-1.96-5.16-2.9-5.09-2.79
					c-0.13,0.11,3.01-1.17,6.48-0.27c3.45,0.62,7.22,3.43,7.98,5.3c2.03,3.61,0.52,7.26-1.33,7.16
					C1240.63,719.64,1239.09,717.67,1237.98,715.84z"/>
				<path class="st3" d="M1279.08,699.08c-0.4-0.48-1.34-2.15-2.94-3.01c-1.48-0.97-3.62-1.14-3.57-1.08
					c-0.07,0.09,1.74-1.13,4.03-1.02c2.25-0.06,4.99,1.2,5.71,2.27c1.75,2,1.28,4.49,0.11,4.67
					C1281.25,701.11,1280.03,700.08,1279.08,699.08z"/>
				<path class="st3" d="M1276.39,688.11c-0.09,0.62-0.02,2.53-0.93,4.11c-0.75,1.6-2.49,2.87-2.47,2.78
					c-0.1-0.04,2.07,0.06,3.97-1.24c1.95-1.12,3.62-3.63,3.68-4.92c0.45-2.62-1.26-4.5-2.35-4.04
					C1277.17,685.23,1276.67,686.76,1276.39,688.11z"/>
			</g>
		</g>
	</g>
	<g>
		<g>
			<path class="st3" d="M620.54,538.82c-29.92-26.68-45.31-65-52.95-92.44c-8.29-29.8-9.5-53.58-9.51-53.81l-1.63-0.1
				c0.01,0.24,1.22,24.19,9.57,54.19c7.71,27.72,23.26,66.43,53.55,93.44L620.54,538.82z"/>
		</g>
		<g>
			<path class="st3" d="M561.49,385.66c1.47,6.86,0.24,13.34-2.9,18.02c-4.93-3.63-8.81-9.45-10.28-16.31
				c-1.47-6.86-0.24-13.34,2.9-18.02C556.14,372.99,560.01,378.8,561.49,385.66z"/>
		</g>
		<g>
			<path class="st3" d="M552.31,405.2c5.16,4.8,8.17,11.1,8.75,17.16c-5.66,0.26-11.89-2.04-17.04-6.84
				c-5.16-4.8-8.17-11.1-8.75-17.16C540.93,398.11,547.15,400.4,552.31,405.2z"/>
		</g>
		<g>
			<path class="st3" d="M549.89,425.72c6.41,2.01,11.66,6.47,14.77,11.89c-4.65,2.99-10.88,3.84-17.29,1.83
				c-6.41-2.01-11.66-6.47-14.77-11.89C537.25,424.57,543.48,423.71,549.89,425.72z"/>
		</g>
		<g>
			<path class="st3" d="M559.76,450.42c5.07,1.6,9.13,5.69,11.43,10.87c-3.85,3.23-8.89,4.46-13.96,2.86
				c-5.07-1.6-9.13-5.69-11.43-10.86C549.64,450.04,554.68,448.82,559.76,450.42z"/>
		</g>
		<g>
			<path class="st3" d="M568.42,415.18c3.99-4.02,9.28-5.73,14.4-5.19c0.28,5.42-1.59,10.91-5.58,14.93
				c-3.99,4.02-9.28,5.73-14.4,5.19C562.56,424.69,564.43,419.2,568.42,415.18z"/>
		</g>
		<g>
			<path class="st3" d="M573.05,432.87c3.99-4.02,9.28-5.73,14.4-5.19c0.28,5.42-1.59,10.91-5.58,14.93
				c-3.99,4.02-9.28,5.73-14.4,5.18C567.19,442.38,569.06,436.89,573.05,432.87z"/>
		</g>
	</g>
	<g>
		<g>
			<path class="st5" d="M602.5,575c-27.63-4.03-51.28-20.4-66.25-33.42c-16.25-14.14-26.08-27.5-26.18-27.63l-0.98,0.57
				c0.1,0.13,10,13.59,26.35,27.83c15.12,13.15,39.01,29.69,66.98,33.77L602.5,575z"/>
		</g>
		<g>
			<path class="st5" d="M509.41,508.63c3.49,3.42,5.26,7.66,5.23,11.59c-4.26-0.22-8.74-2.11-12.23-5.53
				c-3.49-3.42-5.26-7.66-5.23-11.59C501.43,503.32,505.92,505.21,509.41,508.63z"/>
		</g>
		<g>
			<path class="st5" d="M511.57,523.51c4.84,0.81,9.01,3.32,11.67,6.62c-3.19,2.32-7.69,3.38-12.53,2.57
				c-4.84-0.81-9.01-3.32-11.67-6.62C502.23,523.75,506.73,522.7,511.57,523.51z"/>
		</g>
		<g>
			<path class="st5" d="M518.04,536.37c4.5-1.29,9.26-0.71,13.15,1.24c-1.56,3.52-4.85,6.41-9.34,7.7
				c-4.5,1.29-9.26,0.71-13.15-1.24C510.25,540.55,513.54,537.66,518.04,536.37z"/>
		</g>
		<g>
			<path class="st5" d="M533.25,546.94c3.56-1.02,7.49-0.19,10.81,1.93c-1,3.36-3.46,6-7.02,7.02c-3.56,1.02-7.49,0.19-10.81-1.93
				C527.23,550.6,529.69,547.95,533.25,546.94z"/>
		</g>
		<g>
			<path class="st5" d="M524.76,523.13c0.78-3.87,3.2-6.9,6.38-8.54c2.24,3.04,3.27,6.95,2.49,10.82c-0.78,3.87-3.2,6.9-6.38,8.54
				C525.01,530.91,523.99,527,524.76,523.13z"/>
		</g>
		<g>
			<path class="st5" d="M534.25,531.64c0.78-3.87,3.2-6.9,6.38-8.54c2.24,3.04,3.27,6.95,2.49,10.82c-0.78,3.87-3.2,6.9-6.38,8.54
				C534.49,539.42,533.47,535.51,534.25,531.64z"/>
		</g>
	</g>
	<g>
		<g>
			<path class="st6" d="M619.14,657.7c-31.87,12.1-66.96,5.71-90.78-1.78c-25.86-8.13-44.4-19.29-44.59-19.4l-0.71,1.35
				c0.19,0.11,18.86,11.35,44.9,19.54c24.06,7.57,59.5,14.02,91.77,1.77L619.14,657.7z"/>
		</g>
		<g>
			<path class="st6" d="M479.85,630.05c5.79,2.25,10.23,6.63,12.57,11.74c-4.67,2.39-10.59,2.75-16.38,0.5
				c-5.79-2.25-10.23-6.63-12.57-11.74C468.14,628.16,474.06,627.8,479.85,630.05z"/>
		</g>
		<g>
			<path class="st6" d="M491.14,647.97c5.64-1.98,11.6-1.35,16.44,1.26c-2,5.01-6.16,9.2-11.8,11.18
				c-5.64,1.98-11.6,1.35-16.44-1.26C481.34,654.14,485.5,649.96,491.14,647.97z"/>
		</g>
		<g>
			<path class="st6" d="M505.8,660.58c4.01-4.49,9.44-6.73,14.76-6.63c0.47,5.54-1.29,11.34-5.3,15.83
				c-4.01,4.49-9.44,6.73-14.76,6.63C500.03,670.88,501.79,665.07,505.8,660.58z"/>
		</g>
		<g>
			<path class="st6" d="M526.32,667.09c4.01-4.49,9.44-6.73,14.76-6.63c0.47,5.54-1.29,11.34-5.3,15.83s-9.44,6.73-14.76,6.63
				C520.55,677.39,522.31,671.58,526.32,667.09z"/>
		</g>
		<g>
			<path class="st6" d="M507.02,646.06c-3.53-4.6-5.1-10.13-4.73-15.16c4.65,0.54,9.4,3.24,12.93,7.84
				c3.53,4.6,5.1,10.13,4.73,15.16C515.3,653.36,510.55,650.66,507.02,646.06z"/>
		</g>
		<g>
			<path class="st6" d="M528.33,652.73c-3.6-4.54-5.25-10.06-4.96-15.1c4.65,0.46,9.43,3.08,13.03,7.62
				c3.6,4.54,5.25,10.06,4.96,15.1C536.71,659.89,531.93,657.27,528.33,652.73z"/>
		</g>
		<g>
			<path class="st6" d="M553.29,668.88c0.94-2.39,2.82-4.05,5.01-4.74c1.05,2.21,1.24,4.84,0.29,7.23
				c-0.94,2.39-2.82,4.05-5.01,4.74C552.53,673.9,552.34,671.27,553.29,668.88z"/>
		</g>
	</g>
	<path class="st3" d="M687.55,729.89c0,0,40.61-160.61,27.14-176.75c-18.61-22.3-33.96,51.69-35.47,45.4
		c-14.23-59.35-18.02-135.29-63.91-143.32c-26.09-4.57,6.03,56.47,4.09,72.98c-1.93,16.51-48.95-38.3-77.51-67.02
		c-28.57-28.71-43.32-10.53-25.27,25.57c17.45,34.91,73.92,73.07,62.28,77.6c-11.64,4.53-82.3-40.56-90.96-21.29
		c-10.61,23.63,95.39,55.8,85.41,61.1c-9.98,5.31-60.64-12.18-59.26,5.9c1.38,18.07,69.49,17.4,68.32,25.35
		c-1.88,12.87-46.93-16.26-48.91,1.55c-2.02,18.22,59.26,14.89,58.2,29.1c-0.61,8.17-13.76-4.15-15.7,7.16
		c-4.42,25.79,76.37,57.2,76.37,57.2L687.55,729.89z"/>
	<g>
		<path class="st5" d="M718.52,730.87c0,0-38.65-59.26-57.25-70.45c-19.82-11.92-4.73,23.77-4.73,23.77s-40.5-48.19-51.75-38.4
			c-11.26,9.79-1.04,21.13-1.04,21.13s-36.36-10.77-42.89,2.57c-10.04,20.51,49.81,37.51,49.81,37.51s-25.69-0.27-20.97,13.57
			C596.83,741.46,718.52,730.87,718.52,730.87z"/>
		<path class="st6" d="M560.86,669.5c6.53-13.34,42.89-2.57,42.89-2.57s-10.22-11.34,1.04-21.13c11.26-9.79,43.65,19.52,43.65,19.52
			s-3.4-24.17,21-2.88c17.42,15.21,49.08,68.44,49.08,68.44L560.86,669.5z"/>
	</g>
	<g>
		<g>
			<g>
				<path class="st6" d="M671.6,582.08l1.73-1.18c-31.47-47.66-41.07-104.24-43.59-143.31c-2.73-42.4,2.06-73.92,2.11-74.23
					l-2.15-0.62c-0.05,0.32-4.88,32.04-2.14,74.7C630.1,476.83,639.8,533.92,671.6,582.08z"/>
			</g>
			<g>
				<path class="st6" d="M638.05,355.93c0.07,9.57-3.25,17.49-8.55,22.24c-5.39-6.85-8.83-16.09-8.9-25.66
					c-0.07-9.57,3.25-17.49,8.55-22.24C634.54,337.12,637.99,346.36,638.05,355.93z"/>
			</g>
			<g>
				<path class="st6" d="M621.01,377.45c5.36,8.46,7.57,17.97,6.7,26.12c-7.36-2.09-14.77-7.76-20.14-16.22
					c-5.36-8.46-7.57-17.97-6.7-26.12C608.23,363.32,615.65,368.99,621.01,377.45z"/>
			</g>
			<g>
				<path class="st6" d="M612.41,403.16c7.72,5.37,13.3,13.44,15.86,21.84c-6.79,1.89-15.05,0.34-22.77-5.03
					c-7.72-5.37-13.3-13.44-15.86-21.84C596.43,396.24,604.69,397.79,612.41,403.16z"/>
			</g>
			<g>
				<path class="st6" d="M622.48,448.05c3.37,2.01,5.92,5.23,7.24,8.69c-2.76,1.03-6.24,0.65-9.61-1.36
					c-3.37-2.01-5.92-5.23-7.24-8.69C615.64,445.66,619.11,446.04,622.48,448.05z"/>
			</g>
			<g>
				<path class="st6" d="M625.22,464.67c3.37,2.01,5.92,5.23,7.24,8.69c-2.76,1.03-6.24,0.65-9.61-1.36
					c-3.37-2.01-5.92-5.23-7.24-8.69C618.37,462.28,621.85,462.66,625.22,464.67z"/>
			</g>
			<g>
				<path class="st6" d="M639.11,397.37c6.22-3.52,13.5-3.49,19.95-0.57c-1.08,7.18-4.96,13.54-11.18,17.06
					c-6.22,3.52-13.5,3.49-19.95,0.57C629.02,407.25,632.89,400.9,639.11,397.37z"/>
			</g>
			<g>
				<path class="st6" d="M640.36,422.42c6.22-3.53,13.5-3.49,19.95-0.57c-1.08,7.18-4.96,13.54-11.18,17.06
					c-6.22,3.53-13.5,3.49-19.95,0.57C630.26,432.3,634.13,425.94,640.36,422.42z"/>
			</g>
			<g>
				<path class="st6" d="M639.12,458.27c4.05-2.29,8.78-2.27,12.98-0.37c-0.7,4.68-3.23,8.81-7.28,11.11
					c-4.05,2.29-8.78,2.27-12.98,0.37C632.55,464.7,635.07,460.56,639.12,458.27z"/>
			</g>
		</g>
	</g>
	<g>
		<path class="st7" d="M1083.15,599.59c3.66,0.59,3.44,1.19,3.91,1.25c0.56,0.07,7.16-3.24,7.16-3.24s19.52-9.63,20.55-10.19
			l14.09-17.73l10.86,5.01c0,0-15.84,18.85-16.85,19.68c-1,0.83-28.99,10.64-31.42,11.59c0,0-2.45,2.24-4.04,3.6
			c-1.59,1.35-3.71,1.89-4.22,2.2c-0.07,0.05-1.83,0.97-4.3,1.51c-2.13,0.46-0.36-0.98-0.36-0.98s3.77-1.59,3.59-1.88
			c-0.14-0.22-2.15,0.77-4.5,1.31c-0.6,0.14-1.2,0.27-1.75,0.39c-1.44,0.31-2.08-0.51-0.63-1.09c0.51-0.2,1.37-0.52,2.02-0.65
			c0.7-0.15,1.29-0.51,1.85-0.73c1.12-0.43,1.95-0.73,1.91-0.76c-0.06-0.05,0.1-0.3-0.55-0.17c-0.78,0.15-2.35,0.85-3.51,0.98
			c-0.66,0.07-2.03,0.32-2.03,0.32s-2.42,0.23-2.44-0.11c-0.04-0.74,1.45-1.16,2.37-1.14c0.58-0.29,2.03-0.51,2.03-0.51
			s2.81-1.11,2.65-1.52c-0.07-0.17-1.77,0.09-3.57,0.21c-1.91,0.13-3.29,0.13-3.39-0.24c-0.16-0.59,1.36-0.81,1.36-0.81
			s1.34-0.2,1.78-0.3c0.51-0.12,2.02-0.59,2.02-0.59s5.17-1.9,4.98-2.28c-0.19-0.38-1.04-1.18-1.4-1.18c-0.36,0-1.02,0.37-1.38,0.37
			c-0.36,0-1.15-0.07-1.2-0.53c-0.05-0.46,1.97-1.41,1.97-1.41S1082.09,599.42,1083.15,599.59z"/>
		<path class="st8" d="M1119.05,580.66c0,0,3.51,3.19,4.98,4.24c1.22,0.87,7.14,3.73,7.14,3.73s5.89-9.02,8.47-13.55
			c3.13-5.49,5.29-13.65,4.55-13.87c-2.07-0.62-4.93-1-7.56,0.21C1127.51,565.61,1119.05,580.66,1119.05,580.66z"/>
		<path class="st9" d="M1086.56,604.31c-1.56,0.25-3.16-0.05-3.86-1.48C1082.55,604.52,1085.12,605.36,1086.56,604.31z"/>
	</g>
	<path class="st10" d="M649.69,541.01c0.22-5.25-0.55-10.44-2.89-15.34c-2.01-4.21-7-6.6-11.54-6.6
		c-14.43-0.02-16.27,19.13-25.45,26.52c-2.81,2.26-5.94,4.09-8.6,6.53c-9.81,8.99-5.39,25.62,3.62,33.5
		c6.25,5.47,16.07,8.57,23.77,4.3c4.02-2.23,7.07-5.94,9.25-10c3.09-5.77,5.08-12.42,7.27-18.57
		C647.45,554.81,649.4,548,649.69,541.01z"/>
	<path class="st11" d="M652.05,566.46c-4.51-13.67-10.46-13.46-10.46-13.46l4.81,29.12c2.78-0.76,6.41-2.46,9.19-3.24
		C654.66,574.55,653.16,569.83,652.05,566.46z"/>
	<path class="st12" d="M674.83,613.09l-16.48-12.57c0,0-1.66-11.73-3.88-22.13c-2.78,0.79-5.29,2.97-8.07,3.73l4.19,23.31
		l21.6,11.14l6.1,7.84l1.39-8.05L674.83,613.09z"/>
	<path class="st13" d="M825.04,593.46c5.12,0,9.92,1.35,14.07,3.71c0.52,0.3,1.09,0.57,1.7,0.82c12.66,5.2,26.52-4.43,26.52-18.12
		v-67.32H800c-13.69,0-23.32-13.86-18.12-26.52c0.25-0.61,0.52-1.18,0.82-1.7c2.36-4.15,3.71-8.95,3.71-14.07
		c0-16.21-13.52-29.27-29.9-28.51c-14.82,0.69-26.76,12.86-27.18,27.7c-0.15,5.28,1.14,10.24,3.5,14.53
		c0.29,0.53,0.56,1.11,0.81,1.73c5.16,12.87-4.63,26.84-18.49,26.84H648.4v153.4c0,36.19,29.34,65.52,65.52,65.52h153.4v-67.1
		c0-13.76-13.9-23.45-26.64-18.26c-0.61,0.25-1.18,0.52-1.71,0.81c-4.54,2.55-9.85,3.89-15.49,3.59
		c-14.54-0.77-26.28-12.58-26.96-27.12C795.75,606.99,808.81,593.46,825.04,593.46z"/>
	<path class="st11" d="M970.95,556.11c0.24-5.11,1.81-9.84,4.36-13.88c0.32-0.51,0.62-1.07,0.9-1.66
		c5.79-12.41-3.19-26.7-16.86-27.34l-67.25-3.14l-3.14,67.25c-0.64,13.67-14.93,22.65-27.34,16.86c-0.59-0.28-1.15-0.58-1.66-0.9
		c-4.04-2.55-8.77-4.12-13.88-4.36c-16.2-0.76-29.87,12.14-29.88,28.54c-0.01,14.84,11.6,27.33,26.4,28.44
		c5.26,0.39,10.28-0.66,14.68-2.82c0.55-0.27,1.14-0.51,1.77-0.73c13.1-4.55,26.6,5.88,25.95,19.73l-3.12,66.67l153.24,7.16
		c36.15,1.69,66.82-26.24,68.51-62.39l7.16-153.24l-67.03-3.13c-13.74-0.64-24.07,12.79-19.49,25.76c0.22,0.62,0.46,1.2,0.73,1.74
		c2.33,4.65,3.43,10.02,2.86,15.64c-1.45,14.48-13.79,25.66-28.35,25.67C983.1,586,970.19,572.32,970.95,556.11z"/>
	<path class="st5" d="M783.56,450.22c0.26,5.11-0.85,9.97-3,14.24c-0.27,0.54-0.52,1.12-0.73,1.74
		c-4.56,12.91,5.76,26.26,19.43,25.58l67.24-3.38l-3.38-67.24c-0.69-13.67,12.67-23.99,25.58-19.43c0.62,0.22,1.2,0.46,1.74,0.73
		c4.26,2.15,9.13,3.25,14.24,3c16.19-0.81,28.56-14.97,26.98-31.3c-1.43-14.77-14.19-26.08-29.03-25.75
		c-5.28,0.12-10.17,1.65-14.34,4.22c-0.52,0.32-1.08,0.62-1.69,0.9c-12.59,5.8-27.04-3.27-27.74-17.12l-3.35-66.66l-153.21,7.7
		c-36.14,1.82-63.97,32.59-62.15,68.73l7.7,153.21l67.02-3.37c13.74-0.69,22.72-15.06,16.9-27.53c-0.28-0.6-0.58-1.15-0.9-1.66
		c-2.77-4.41-4.38-9.64-4.37-15.29c0.04-14.56,11.25-26.88,25.73-28.29C768.57,421.65,782.75,434.02,783.56,450.22z"/>
	<path class="st14" d="M921.18,413.11c-5.12,0-9.92-1.35-14.07-3.71c-0.52-0.3-1.09-0.57-1.7-0.82
		c-12.66-5.2-26.52,4.43-26.52,18.12v67.32h67.32c13.69,0,23.32,13.86,18.12,26.52c-0.25,0.61-0.52,1.18-0.82,1.7
		c-2.36,4.15-3.71,8.95-3.71,14.07c0,16.21,13.52,29.27,29.9,28.51c14.82-0.69,26.76-12.86,27.18-27.7
		c0.15-5.28-1.14-10.24-3.5-14.53c-0.29-0.53-0.56-1.11-0.81-1.73c-5.16-12.87,4.63-26.84,18.49-26.84h66.74v-153.4
		c0-36.19-29.34-65.52-65.52-65.52H878.9v67.1c0,13.76,13.9,23.45,26.64,18.26c0.61-0.25,1.18-0.52,1.71-0.81
		c4.54-2.55,9.85-3.89,15.49-3.59c14.54,0.77,26.28,12.58,26.96,27.12C950.47,399.58,937.41,413.11,921.18,413.11z"/>
	<path class="st15" d="M604.58,710.18c0,0-1.02,7.07-2.77,9.35c-0.59,0.77-1.66,1.73-2.36,3.12c-1.1,2.15-0.49,5.36,0.32,7.13
		c0.41,0.91-0.03,0.9,0.92,1.2c2.8,0.86,5.77-0.59,6.96-3.28c0.67-1.5,1.25-3.5,1.37-6.02c0.3-6.42,2.29-9.68,2.29-9.68
		L604.58,710.18z"/>
	<path class="st15" d="M635.18,713.41c0,0,0.63,7.97,0.12,10.56c-0.27,1.39-1.79,4.24-1.1,5.55c0.7,1.31,1.49,1.63,1.49,1.63
		l18.06,0.29c0.98,0.02,0.33-0.62-0.46-1.2c-1.3-0.96-2.35-1.59-6.49-3.6c-0.27-0.13-1.26-0.76-1.61-0.98
		c-0.9-0.55-1.8-1.42-2.58-2.29c-1.3-1.45-1.41-8.47-1.41-8.47L635.18,713.41z"/>
	<path class="st8" d="M649.3,607.47c0,0,2.27,12.94,0.78,21.42c-1.49,8.48-8.66,87.12-8.66,87.12l-7.97,0.45
		c0,0-1.67-32.85-1.37-37.42c0.3-4.57,2.66-12.21,2.66-12.21l-0.79-26.52L644,605.47L649.3,607.47z"/>
	<path class="st16" d="M625.89,604.75c0,0-6.27,9.46-7.77,17.29c-1.49,7.83,1.1,31.9-1.78,42.16c-1.56,5.55-7.45,14.13-8.35,21.31
		c-0.9,7.18-4.41,25.98-4.41,25.98l7.96,1.58l18.5-46.96l14.51-42.44l3.72-21.86L625.89,604.75z"/>
	<path class="st11" d="M630.97,550.91c0,0-8.3-0.53-11.59,3.06s7.29,31.98,7.89,36.55c0.6,4.57-3.05,16.71-3.05,16.71
		s19.51,3.93,25.08,0.24c0,0,0.6-32.85,0-36.11c-0.6-3.26-5.58-16.53-6.77-17.84C641.33,552.22,630.97,550.91,630.97,550.91z"/>
	<path class="st17" d="M633.73,539.79c0,0-0.04,0.25-0.12,0.66c-0.37,2-1.8,8.64-2.76,10.46c-1.16,2.21,3.99,9.24,8.94,8.38
		c1.48-0.26-1.25-6.46-1.12-7.12c0.25-1.26,0.59-2.98,0.94-4.74c0.2-0.99,0.39-2,0.58-2.95c0.53-2.69,0.96-4.89,0.96-4.89
		L633.73,539.79z"/>
	<path class="st13" d="M633.61,540.45c0.08-0.42,0.12-0.66,0.12-0.66l7.43-0.19c0,0-0.43,2.2-0.96,4.89
		c-0.19,0.94-0.38,1.94-0.58,2.93c-1.15-0.17-2.34-0.73-3.55-1.78c-1.31-1.15-2.17-2.53-2.69-4
		C633.48,541.17,633.55,540.76,633.61,540.45z"/>
	<path class="st17" d="M638.73,522.87c0,0-3.5-0.41-5.69,2.44c-2.19,2.84-4.56,11.64,0.89,16.42c5.45,4.78,10.84-0.63,11.64-6.37
		S646.67,522.66,638.73,522.87z"/>
	<path class="st17" d="M647.17,535.28c-0.65,1.27-1.74,1.97-2.44,1.57s-0.73-1.76-0.08-3.02c0.65-1.27,1.74-1.97,2.44-1.57
		C647.79,532.66,647.82,534.01,647.17,535.28z"/>
	<path class="st10" d="M639.12,521.93c0,0-4.68,8.36-8.02,8.75c-3.35,0.39-3.78,4.83-3.78,4.83s1.2-10.24,4.51-12.22
		C635.13,521.32,639.12,521.93,639.12,521.93z"/>
	<path class="st13" d="M608.19,726.28c-4.34,0.79-7.23-1.75-8.73-3.66c-1.1,2.16-1.64,5.38-0.83,7.15c0.71,1.56,2.8,1.52,4.45,1.58
		c1.74,0.06,3.08-0.9,3.95-2.42C607.43,728.22,607.85,727.34,608.19,726.28z"/>
	<path class="st13" d="M645.19,725.66c-4.78,1.23-8.31,0.39-10.28-0.4c-0.51,1.45-1.18,3.26-0.83,4.31
		c0.44,1.28,1.06,1.57,1.61,1.59c4.36,0.11,15.98,0.27,19.31,0.31c0.46,0.01,0.72-0.54,0.42-0.9
		C654.61,729.58,645.55,725.88,645.19,725.66z"/>
	<path class="st17" d="M631.98,532.78c0.27,1.49-0.28,2.85-1.22,3.04c-0.95,0.2-1.94-0.85-2.21-2.34c-0.27-1.49,0.28-2.85,1.22-3.04
		C630.71,530.25,631.7,531.3,631.98,532.78z"/>
	<path class="st18" d="M637.44,537.93l4.22,0.19c0,0-0.17,1.6-2.03,1.57C637.36,539.65,637.44,537.93,637.44,537.93z"/>
	<g>
		<path class="st19" d="M997.52,201.22c0.53,0.02,1.97,0.5,4.07,4.49c2.69,5.09,6.62,20.45,6.62,20.45l-11.74,4.37l-1.51-3.21
			l-2.48-24.68C992.48,202.64,997.37,201.22,997.52,201.22z"/>
		<path class="st13" d="M982,199.01c3.36,0,11.66,0.98,15.52,2.22c0,0,2.83,24.34-2.55,42.84c-1.2,4.14,1,17.16,1,17.16l-34.78-0.46
			c0,0,4.12-31.48,2.57-36.57c-1.55-5.09-1.59-22.81-1.59-22.81s0.24-0.04,7.81-1.35C973.51,199.43,978.41,199,982,199.01z"/>
		<path class="st15" d="M977.95,306.4c0,0,0.77,8.88,2.18,11.34c1.41,2.46-0.07,6.64-0.15,7.21c-0.07,0.57-2.98,1.39-7.6,0.9
			c-4.62-0.49-4.54-1.56-4.17-3.28c0.37-1.72,2.83-3.94,2.98-5.57c0.15-1.64-1.41-7.54-1.41-7.54L977.95,306.4z"/>
		<path class="st20" d="M992.04,253.89c0,0,24.01-1.33,29.37,1.91c5.36,3.25-3.81,19.18-3.81,19.18s-16.71-0.77-49.43,1.12
			c-7.75,0.45-8.42-20.21-6.97-21.92C962.65,252.48,992.04,253.89,992.04,253.89z"/>
		<path class="st19" d="M971.81,326.55c-4.75-0.51-4.17-2.84-3.78-4.62c0.24-1.11,1.6-2.42,2.42-3.66c0.42,0.34,1.12,0.94,3.18,1.55
			c2.14,0.63,5.08-0.62,6.96-1.41c0.67,2.48,0.7,5.65,0.64,6.13C981.14,325.14,976.56,327.05,971.81,326.55z"/>
		<path class="st11" d="M974.43,271.07c0.96,7.26,5.71,43.4,5.71,43.4l-11.02,1.37c0,0-13.55-47.17-12.86-54.38
			c0.7-7.21,5.77-7.82,5.77-7.82S971.89,251.85,974.43,271.07z"/>
		<path class="st15" d="M961.78,204.09c3.25-1.22,4.84,28.08,5.28,40.14c5.76,0.55,15.8,0,18.3-0.18c1.18-0.09,3.89-1.08,5.06-1.23
			c1.2-0.16,2.28-0.24,2.87-0.14c0.22,0.04,6.22,2.49,6.73,3.03c0.64,0.67,2.36,2.35,2.07,3.08c-0.29,0.73-3.31-2.03-3.31-2.03
			l-1.48-0.83c1.84,1.8,5.34,4.16,4.84,5.02c-0.49,0.84-3.65-1.56-5.91-3.2c1.93,1.75,4.33,4.87,3.78,5.36
			c-0.5,0.44-3.23-3.18-6.15-4.22c-1.08-0.39-2.16,0.68-3.01,0.81c-0.63,0.09-1.59,0.3-2.2,0.12l-3.16-0.9
			c-1.08,0.1-1.1,0.73-2.19,0.97c-1.26,0.27-3.33,0.55-4.94,0.94c-9.26,2.26-12.34,3.31-15.18,3.31
			C954.59,254.15,954.09,206.98,961.78,204.09z"/>
		<path class="st19" d="M955.61,231.6c-0.61-12.35-0.52-27.58,6.41-30.18c2.73-1.03,7.55,5.14,6.68,30.43
			C965,232.16,959.57,232.41,955.61,231.6z"/>
		<path class="st15" d="M1010.17,314c0,0-0.96,3.08,0.76,5.12c1.72,2.04,8.88,4.04,9.82,5.14c0.94,1.1,0.87,2.04,0.87,2.04
			l-20.08-0.55l0.22-6.07l0.92-4.36L1010.17,314z"/>
		<path class="st19" d="M1012.18,320.14c0,0-5.16,2.09-7.65,0.85c-2.49-1.24-2.42-1.58-3.14-1.12c-0.72,0.46-0.98,6.15-0.98,6.15
			l22.58,0.66c1.57-0.04,2.37-1.19,1.09-2.18c-0.88-0.68-1.89-1.13-2.46-1.46C1019.85,322.02,1012.18,320.14,1012.18,320.14z"/>
		<path class="st11" d="M1009.41,259.58c1.55-3.27,5.08-7.52,11.29-4.96c5.92,2.44,7.51,8.45,5.65,14.6
			c-1.87,6.15-14.17,42.29-14.6,47.26l-9.82,0.07c0,0,1.79-28.62,2.22-35.54C1004.57,274.35,1006.73,265.24,1009.41,259.58z"/>
		<path d="M1025.36,226.29h-32.84c-0.87,0-1.65,0.53-1.98,1.33l-10.11,24.75h-18.11c-0.51,0-0.92,0.41-0.92,0.92l0,0
			c0,0.51,0.41,0.92,0.92,0.92h51.53c1.42,0,2.7-0.83,3.28-2.13l10.18-22.76C1027.95,227.9,1026.91,226.29,1025.36,226.29z"/>
		<path class="st18" d="M1007.68,240.7c-0.22,1.11-1.19,1.86-2.16,1.66c-0.97-0.19-1.58-1.25-1.35-2.37
			c0.22-1.11,1.19-1.85,2.16-1.66C1007.29,238.53,1007.9,239.59,1007.68,240.7z"/>
		<g>
			<path class="st21" d="M989.8,169.28c-0.99-0.33-1.96-0.71-2.91-1.16c-1.06-0.51-2.44-1.11-3.31-1.25
				c-1.83-0.28-4.98-0.09-6.72,1.79c-2.17,2.35-6.02,0.42-5.24,12.73c0.88,13.93,8.62,12.4,8.81,12.17
				c0.19-0.24,6.91-8.91,6.91-8.91s2.35,5.14,2.35,4.95C989.69,189.41,1001.69,173.28,989.8,169.28z"/>
			<path class="st15" d="M983.92,194.59l0.67,4.98c0,0,1.5,7.17-0.43,8.55c-1.93,1.38-8.2-8.76-8.2-8.76l0.66-12.61L983.92,194.59z"
				/>
			<path class="st13" d="M976.41,190.83c1.59,4.3,5.38,6.95,8.07,7.97l-0.57-4.22l-7.29-7.84L976.41,190.83z"/>
			<path class="st15" d="M983.53,173.02c4.08-0.66,7.75,2.62,7.64,6.71c-0.04,1.78-0.19,4-0.56,6.38
				c-0.89,5.75-4.81,10.81-7.4,10.35c-2.59-0.45-9.11-5.41-7.97-13.59C975.95,177.84,979.24,173.71,983.53,173.02z"/>
			<path class="st15" d="M977.04,183.86c-0.22,1.26-1.23,2.14-2.26,1.96c-1.03-0.18-1.69-1.35-1.47-2.61
				c0.22-1.26,1.23-2.14,2.26-1.96C976.6,181.43,977.26,182.6,977.04,183.86z"/>
			<path class="st21" d="M975.58,181.25c0,0,3.13,0.78,4.3-1.24c1.16-2.02,5.32-6.37,10.61-4.56c5.29,1.8-4.65-4.39-5.08-4.39
				c-0.42,0-5.5-0.04-5.5-0.04s-3.91,3.22-4.05,3.57c-0.14,0.35-1.27,4.21-1.27,4.21L975.58,181.25z"/>
		</g>
		<path class="st18" d="M981.31,189.66l5.7,1.09c0,0-0.54,2.15-3.07,1.74C980.87,192,981.31,189.66,981.31,189.66z"/>
	</g>
	<g>
		<path class="st15" d="M884.84,586.72c0.22,0.75,0.34,1,0.62,1.51c1.79,3.26,5.94,7.9,5.94,7.9l3.21-7.23c0,0-0.52-2.27-1.43-5.52
			C890.08,584.19,887.12,584.66,884.84,586.72z"/>
		<path class="st10" d="M903.24,580.45c0,0-17.9,7.71-18.48,7.56c-0.37-0.09-7.34-11.76-7.42-22.73c-0.03-5.07,5.23-11.16,11.1-9.96
			c2.96,0.61,2.91,1.43,7.28,7.78C900.1,569.46,903.24,580.45,903.24,580.45z"/>
		<path class="st15" d="M918.52,718.67c0,0-0.42,7.03-0.43,7.05c-0.16,0.89-0.77,3.1-0.77,3.91c0,3.05,14.48-2.59,11.23-3.94
			c-0.29-0.12-1.83-1.05-1.93-2.08c-0.15-1.6-0.53-4.83-0.53-4.83L918.52,718.67z"/>
		<path class="st19" d="M928.52,725.66c0,0-3.4,0.93-5.14,1.17c-1.74,0.23-4.04-1.73-5.27-1.2c-1.35,0.58-1.3,5.84-1.3,5.84
			s18.23,1.5,23.35-0.05C942.19,730.8,935.47,727.83,928.52,725.66z"/>
		<path class="st15" d="M888.91,718.67c0,0-0.42,7.03-0.43,7.05c-0.16,0.89-0.77,3.1-0.77,3.91c0,3.05,14.48-2.59,11.23-3.94
			c-0.29-0.12-2.29-1.74-2.39-2.77c-0.15-1.6-0.07-4.14-0.07-4.14L888.91,718.67z"/>
		<path class="st19" d="M898.91,725.66c0,0-3.4,0.93-5.14,1.17c-1.74,0.23-4.04-1.73-5.27-1.2c-1.36,0.58-1.41,5.84-1.41,5.84
			s18.31,1.74,23.46-0.05C912.55,730.72,905.86,727.83,898.91,725.66z"/>
		<g>
			<path class="st17" d="M893.33,590.62l12.75-17.86c0.05-0.16,0.17-0.48,0.35-0.97c0.64-1.77,1.98-5.46,3.14-9.13l0.01-0.04
				c0.37-1.28,1.14-3.52,1.89-5.68c0.83-2.41,1.87-5.39,1.9-5.9c-0.03-0.09-0.09-0.24-0.17-0.45c-0.47-1.21-1.1-4.1-1.32-5.36
				c-0.14-0.8-0.28-2.75,0.67-2.75c1.5,0,0.78,1.94,1.47,3.16c0.25-0.81,0.77-2.42,1.04-4.05l0.25-3.8
				c0.05-0.29-0.26-2.38,0.79-2.38l0.05,0c0.94,0.07,0.92,2.3,1.31,6.06c0.12-0.43,0.25-0.96,0.34-1.44
				c-0.01-0.26,0.18-1.39,0.32-1.99c-0.19-1.05-0.08-2.71,1.04-2.55c0.56,0.08,0.51,2.39,0.51,2.39c-0.01,0.32-0.04,2.76-0.02,3.24
				c0.11-0.82,0.56-4.32,1.44-4.32c0.73,0,0.79,0.94,0.77,1.69c-0.01,0.44-0.47,4.23-0.49,4.67c0.34-0.57,0.75-3.91,1.09-3.91
				c1.42,0,0.91,4.75,0.38,5.98c-0.05,0.13-0.1,0.37-0.16,0.66c-0.18,0.85-0.47,2.26-1.22,3.53c-0.89,1.52-2.12,3.94-2.31,4.32
				c-0.14,0.76-0.56,3.48-1.1,6.9c-0.23,1.46-0.48,3.07-0.74,4.73l-0.01,0c-0.05,0.36-0.31,1.5-1.32,5.8
				c-1.38,5.88-1.52,6.13-1.58,6.24c-0.6,1.06-14.35,19.73-14.93,20.52l-0.35,0.47L893.33,590.62z"/>
			<path class="st22" d="M917.05,548.96c0,0-1.03-2.65-2.88-2.65c0,0,1.03-0.37,1.91,0.33
				C916.97,547.34,917.05,548.96,917.05,548.96z"/>
		</g>
		<g>
			<path class="st15" d="M890.25,543.85l-1.64,10.38c0,0,6.25,5.02,9.9,3.96c3.06-0.89,0.96-4.89,0.96-4.89s-1.63-5.54-1.13-8.45
				C898.84,541.95,890.25,543.85,890.25,543.85z"/>
			<path class="st23" d="M891.43,546.99c1.57,0.74,4.67,1.75,7.08,1.99c-0.23-1.45-0.36-2.99-0.17-4.12
				c0.23-1.34-1.47-1.66-3.38-1.61c-2.49,0.21-4.71,0.6-4.71,0.6l-0.32,1.99C890.41,546.34,890.91,546.74,891.43,546.99z"/>
			<path class="st15" d="M882.36,531.87c-0.26,0,2.47,11.6,6.7,13.59c4.23,1.99,10.53,0.95,11.71-2.17
				c1.31-3.45-3.46-15.28-9.41-16.79C885.42,525.01,882.36,531.87,882.36,531.87z"/>
			<path class="st10" d="M887.25,521.22c-3.38,1.95-4.92,4.83-5.45,6.02c-1.58,0.75-3.5,2.38-4.42,6.76
				c-1.13,5.39,2.89,9.54,7.15,10.79c4.26,1.25,4.92,4.07,4.92,4.07l0.48-3.04c0,0-0.95-2.64-2.37-3.97
				c-1.43-1.32,0.68-3.25,0.86-4.82c0.14-1.21-0.75-3.56-0.56-5.55c0,0,2.37-3.59,4.71-4.48
				C896.56,525.48,891.58,518.72,887.25,521.22z"/>
			<path class="st15" d="M889.05,539.04c0.55,1.34,0.33,2.67-0.5,2.97c-0.83,0.3-1.95-0.54-2.5-1.88c-0.55-1.34-0.33-2.67,0.5-2.97
				C887.37,536.86,888.49,537.7,889.05,539.04z"/>
		</g>
		<path class="st15" d="M904.78,590.91l24.59-4.01c0,0-2.8-7.04-3.8-7.04c-1,0-18.6,7.68-18.6,7.68l-1.4,2.81L904.78,590.91z"/>
		<path class="st14" d="M892.19,607.77c0,0-2.45,11.86-1.45,20.85c1,8.99,1.08,40.94,1.08,40.94L888,720.68l9.05,0.2
			c0,0,10.73-51.09,10.53-49.78s3.6-35.97,3.6-35.97l-12.8-28.48L892.19,607.77z"/>
		<path class="st10" d="M894.59,607.21c0,0-1.6,10.68,0.4,15.36c2,4.68,17.15,50.64,17.35,54.39s5.24,45.17,5.24,45.17l10.53-0.3
			l2.28-46.05l-4.77-57.88l-4.63-14.63L894.59,607.21z"/>
		<path class="st15" d="M888.61,554.23c0,0,2.6,1.7,5.02,1.51c2.42-0.2,5.84-2.43,5.84-2.43l-0.48-1.61c0,0-6.26-0.91-6.42-0.81
			C892.42,550.97,888.61,554.23,888.61,554.23z"/>
		<path class="st15" d="M916.28,579.5c0,0,9.3,8.78,13.5,7.28c4.2-1.5,5.94-6.62-4.31-14.12C916.3,565.96,916.28,579.5,916.28,579.5
			z"/>
		<path class="st8" d="M922.58,590.34c-1.38-7.52-11.4-30.91-12.2-35.22c-0.39-2.1-5.79-2.14-10.94-1.87
			c-5.44,0.29-10.83,0.98-10.83,0.98s-4.81,0.79-6.93,2.77c-2.12,1.98-2.68,7.47,0.36,17.88c2.4,8.22,5.38,12.73,6.85,18.72
			c0.3,2.01,0.55,3.99,0.89,6.31c0.54,8.95-0.01,20.78-0.01,20.78s26.2,5.43,35.99-2.81C925.78,617.89,924,598.05,922.58,590.34z"/>
		<path class="st16" d="M929.26,574.18c0,0-10.28,8.48-10.88,8.48c-0.39,0-14.67-10.51-17.96-19.14c-1.82-4.77,2-10.11,6.37-10.09
			c3.03,0.01,4.37,0.79,10.37,5.85C923.15,564.34,929.26,574.18,929.26,574.18z"/>
	</g>
	<path class="st10" d="M748.45,195.46c1.68-4.05,3.4-8.12,7.77-10.17c3.54-1.66,7.23-1.04,10.37,1.33
		c8.9,6.7,1.15,14.07,11.28,26.77c3.15,3.95,6.96,7.13,8.85,11.75c2.64,6.47-0.5,9.58-5.55,12.68
		c-24.13,14.83-36.77-15.62-36.32-22.58C745.19,210.05,747.36,198.07,748.45,195.46z"/>
	<path class="st15" d="M723.41,274.38c1.02-0.16,3.49-1.93,4.36-2.09c0.68-0.12,2.14-0.35,2.76-0.44
		c0.76-2.85,4.64-18.38,5.07-22.94c0.47-4.93,3.96-26.27,3.96-26.27l9.03,1.64c0,0-3.75,16.42-4.79,24.38
		c-0.89,6.84-8.39,22.21-9.35,23.83c0,0.04,0,0.08,0,0.12c-0.15,2.41-1.31,1.61-1.31,1.61l-1.89,0.48c0,0-6.68,0.64-7.12,0.8
		C723.7,275.66,722.39,274.54,723.41,274.38z"/>
	<path class="st24" d="M747.44,210.16c-6.39,2.16-10.02,19.52-10.02,19.52s10.02,2.8,12.58,1.33c0,0,2.91-12.91,3.96-12.46
		L747.44,210.16z"/>
	<path class="st15" d="M698.04,304.37c-1.95,5.15-2.97,10.12-3.06,10.72c-0.04,0.29,0.36,1.69,0.33,1.99
		c-3.92,5.35-9.56,6.52-14.39,6.86c2.46-2.4,6.08-4.68,6.25-5.44c0.28-1.21,1.76-6.61,2.5-14.09
		C692.67,305.8,694.71,304.69,698.04,304.37z"/>
	<path class="st2" d="M753.62,246.72l8.63,24.3c0,0-13.87,2.61-19.05,3.56c-5.18,0.95-34.15,2.22-34.88,2.73
		c-0.54,0.38-6.53,19.73-9.2,30.41c-3.03,0.67-8.22-0.13-10.98-1.09c1.49-15.27,6.88-39.46,8.61-42.09
		C699.54,260.26,753.62,246.72,753.62,246.72z"/>
	<path class="st15" d="M719.91,315.02c-0.95,5.43-1.02,10.49-1,11.1c0.01,0.29,0.67,1.59,0.69,1.89c-2.85,5.99-8.17,8.2-12.85,9.44
		c1.97-2.82,5.09-5.74,5.12-6.52c0.04-1.24,0.49-6.82-0.19-14.3C714.9,317.43,716.69,315.97,719.91,315.02z"/>
	<path class="st4" d="M763.69,247.98l3.35,5.72c5.1,8.7,1.19,19.9-8.21,23.55c-0.05,0.02-0.1,0.04-0.15,0.06
		c-4.91,1.91-33.13,8.58-33.76,9.22c-0.46,0.48-2.71,20.61-3.34,31.59c-2.85,1.22-8.1,1.41-10.99,0.99
		c-1.4-15.28-0.64-40.05,0.57-42.96C713.11,271.41,763.69,247.98,763.69,247.98z"/>
	<path class="st10" d="M718.48,326.29c0.75-0.83,3.51,3.74,4.2,4.71c0.78,1.1,0.55,1.92,0.46,2.09c-0.24,0.45-14.79,9.01-18.34,9.62
		c-0.34,0.06-0.92-0.15-1.06-0.28c-1.39-1.23,4.99-10.29,7.86-11.48C713.45,330.18,715.1,330.02,718.48,326.29z"/>
	<path class="st10" d="M694.52,315.25c0.89-0.67,2.75,4.33,3.24,5.41c0.56,1.22,0.18,1.99,0.06,2.14
		c-0.33,0.4-16.22,6.08-19.81,6.01c-0.34-0.01-0.87-0.32-0.99-0.48c-1.13-1.47,6.83-9.17,9.87-9.8
		C688.86,318.13,690.5,318.28,694.52,315.25z"/>
	<path class="st25" d="M753.49,210.11L753.49,210.11L753.49,210.11c-0.17,0-0.4-0.06-0.64-0.13c-1.19-0.21-3.78-0.52-5.8,0.33
		c-2.45,1.04-6.26,10.71-6.03,20.64c0.09,1.52,0.18,2.88,0.26,3.82c0.62,7.5,2.77,21.57,2.89,21.65c2.93,1.88,20.59-5.42,21.8-7.02
		c1.21-1.6,1.93-21.1,2.52-22.07l1.16-16.95C767.6,209.76,756.63,210.09,753.49,210.11z"/>
	<path class="st15" d="M760.65,203.87c0,0-1.14,5.88-0.91,8.2c0.23,2.32-0.87,9.8-5.78,9.82c-4.91,0.02-0.93-9.51-0.47-11.78
		c0.46-2.27,0.57-9.31,0.57-9.31L760.65,203.87z"/>
	<path class="st13" d="M753.96,204.33c0.08-1.93,0.1-3.53,0.1-3.53l6.58,3.07c0,0-0.23,1.2-0.47,2.73
		C757.3,207.18,755.21,206.11,753.96,204.33z"/>
	<path class="st15" d="M763.06,187.64c0,0,2.54,1.41,3.47,4.46c0.93,3.05-0.13,10.92-6.68,12.82c-6.55,1.9-9.39-4.33-8.04-9.21
		C753.15,190.84,756.08,184.66,763.06,187.64z"/>
	<path class="st15" d="M750.98,193.82c0.13,1.31,0.85,2.31,1.61,2.23c0.76-0.07,1.28-1.2,1.15-2.51c-0.13-1.31-0.85-2.31-1.61-2.23
		C751.36,191.39,750.85,192.51,750.98,193.82z"/>
	<path class="st10" d="M762.29,187.24c0,0,1.19,8.78,4.03,10.37c2.84,1.58,1.65,5.48,1.65,5.48s2.58-9.05,0.33-11.95
		C766.05,188.23,762.29,187.24,762.29,187.24z"/>
	<path class="st15" d="M764.64,198.87c-0.77,1.14-0.77,2.49,0.01,3.01c0.77,0.52,2.02,0.01,2.79-1.13c0.77-1.14,0.77-2.49-0.01-3.01
		C766.66,197.22,765.4,197.72,764.64,198.87z"/>
	<path class="st18" d="M755.08,199.35l4.62,1.16c0,0-0.56,1.75-2.6,1.3C754.61,201.27,755.08,199.35,755.08,199.35z"/>
	<path class="st5" d="M778.02,273.64c0.22-0.01,19.92-1,19.92-1s-8.17,5.87-8.34,5.87s-6.51-2.5-6.79-2.5
		C782.53,276.01,778.02,273.64,778.02,273.64z"/>
	<path class="st15" d="M1176.75,718.96c0,0,0.39,6.91,0.39,6.92c0.14,0.88,0.71,3.04,0.71,3.84c0,3-13.29-2.54-10.31-3.87
		c0.27-0.12,1.68-1.03,1.77-2.05c0.14-1.57,0.48-4.75,0.48-4.75L1176.75,718.96z"/>
	<path class="st11" d="M1167.41,725.88c0,0,3.12,0.92,4.72,1.15c1.6,0.23,3.7-1.7,4.83-1.18c1.24,0.57,1.2,5.73,1.2,5.73
		s-16.73,1.47-21.44-0.05C1154.86,730.93,1161.03,728.02,1167.41,725.88z"/>
	<path class="st15" d="M1198.88,718.6c0,0,0.39,6.91,0.39,6.92c0.14,0.88,0.71,3.04,0.71,3.84c0,3-13.29-2.54-10.31-3.87
		c0.27-0.12,2.1-1.71,2.19-2.73c0.14-1.57,0.06-4.07,0.06-4.07L1198.88,718.6z"/>
	<path class="st11" d="M1189.7,725.47c0,0,3.12,0.92,4.72,1.15c1.6,0.23,3.7-1.7,4.83-1.18c1.24,0.57,1.29,5.73,1.29,5.73
		s-16.61,0.68-21.53-0.05C1177.07,730.83,1183.32,727.6,1189.7,725.47z"/>
	<path class="st8" d="M1194.93,608.88c0,0,2.25,11.65,1.33,20.49c-0.92,8.84-0.99,40.22-0.99,40.22l4.23,50.2l-9.04,0.21
		c0,0-9.85-50.2-9.67-48.91c0.18,1.29-3.3-35.34-3.3-35.34l11.75-27.98L1194.93,608.88z"/>
	<path class="st16" d="M1191.78,601.36c0,0,10.2,10.75,6.41,22.48c-1.52,4.71-15.74,49.76-15.93,53.44
		c-0.18,3.68-4.81,44.37-4.81,44.37l-9.66-0.29l-2.09-45.24l2.76-60.96l5.86-10.28L1191.78,601.36z"/>
	<path class="st13" d="M1129.84,566.38c3.34-3.73,10.61-9.03,10.61-9.03s4.33-3.7,6.1-4.31c2.6-0.9,7.05-3.29,13.49,6.47
		c4.61,6.98,33.68,43.14,38.46,44.36l-31.17,14.91c-0.85-7.12-16.26-20.58-18.48-23.09C1143.9,590.09,1126.68,569.91,1129.84,566.38
		z"/>
	<path class="st15" d="M1131.3,551.23l9.71,5.68c0,0,0.27,8.29-2.9,10.44c-2.66,1.81-4.69-2.53-4.69-2.53s-3.61-5-6.35-6.56
		C1124.32,556.71,1131.3,551.23,1131.3,551.23z"/>
	<path class="st13" d="M1132.92,554.88c-0.37,1.73-1.21,4.23-2.52,6.29c-1.07-1.16-2.27-2.29-3.34-2.9
		c-1.27-0.72-0.46-2.27,0.77-3.74c1.74-1.81,3.46-3.3,3.46-3.3l1.87,1.09C1133.28,553.03,1133.05,554.3,1132.92,554.88z"/>
	<path class="st15" d="M1126.24,536.98c0.16-0.2,8.14,9.73,7.16,14.39c-0.98,4.66-5.81,8.91-9.16,7.74
		c-3.71-1.29-10.61-12.99-8.13-18.67C1118.58,534.77,1126.24,536.98,1126.24,536.98z"/>
	<path class="st10" d="M1117.5,533.85c3.48-1.94,9.16-2.49,13.4-0.27c5.21,2.73,6.4,9.6,4.77,13.79c-1.63,4.19,0.24,6.56,0.24,6.56
		l-2.77-1.62c0,0-1.62-2.52-1.83-4.53c-0.21-2.01-3.14-1.65-4.57-2.57c-1.1-0.7-2.51-2.98-4.29-4.17c0,0-4.49-0.55-6.7,0.69
		C1111.98,543.85,1112.52,536.62,1117.5,533.85z"/>
	<path class="st17" d="M1128.98,546.89c-0.03,1.49,0.68,2.71,1.57,2.73c0.89,0.01,1.64-1.18,1.67-2.67
		c0.03-1.49-0.68-2.71-1.57-2.73C1129.75,544.2,1129,545.4,1128.98,546.89z"/>
	<path class="st18" d="M1120.8,554.8l4.23-3.16c0,0,1.12,1.71-0.7,3.15C1122.11,556.55,1120.8,554.8,1120.8,554.8z"/>
	<path class="st7" d="M1110.19,617.65c1.06-1.55,1.52-3.78,2.98-5.48c0.49-0.57,1.27-1.22,2.16-1.86
		c7.04-4.12,25.38-14.74,26.09-15.56c0.85-0.98,13.36-21.77,13.36-21.77l-11.24-2.55l-10.99,19.4
		c-0.92,0.73-18.36,13.62-18.36,13.62s-3.47,2.71-5.36,3.98c-0.96,0.56-1.89,0.92-2.7,1.2c-1.02,0.36-2.97,1.33-3.37,1.67
		c-0.46,0.4-1.37,1.27-1.92,1.79c-0.54,0.53-1.21,1.12-1.46,1.43c-0.15,0.19-0.64,0.45-0.99,0.63c-0.53,0.26-0.46,1.04,0.11,1.2
		c0.53,0.15,1.26-0.18,1.7-0.39c1.26-0.59,2.8-2.19,2.89-2c0.08,0.2-1.48,3.63-1.64,4.03c-0.15,0.4-1.95,4.4-2.04,5.29
		c-0.09,0.89,0.45,1.1,0.84,0.77c0.34-0.28,3.24-5.62,3.24-5.62s0.37-0.68,0.51-0.29c0.14,0.39-2.47,5.24-2.73,6.04
		c-0.26,0.8-0.05,1.45,0.68,1.17c0.9-0.34,3.37-5.69,3.37-5.69s0.32-0.67,0.54-0.43c0.22,0.23-2.07,4.32-2.1,4.8
		c-0.03,0.47,0.4,0.94,1.02,0.54c0.73-0.46,2.9-5.26,2.9-5.26s0.27-0.32,0.35-0.09c0.08,0.22-1.62,3.85-1.5,4.38
		c0.11,0.45,0.51,0.36,0.51,0.36C1107.96,622.96,1109.13,619.2,1110.19,617.65z"/>
	<path class="st8" d="M1151.72,583.97c0,0-3.66-1.16-6.01-2.24c-1.57-0.72-8.43-4.13-8.43-4.13s2.96-12.48,4.96-16.96
		c7.34-16.46,15.68-5.11,16.81-2.46C1161.57,564.09,1151.72,583.97,1151.72,583.97z"/>
	<path class="st18" d="M896,540.86l3.48-2.61c0,0,0.92,1.41-0.58,2.6C897.08,542.3,896,540.86,896,540.86z"/>
	<path class="st14" d="M1305,731.22H495.57c-1.01,0-1.83,1.05-1.83,2.34l0,0c0,1.29,0.82,2.34,1.83,2.34H1305
		c1.01,0,1.83-1.05,1.83-2.34l0,0C1306.83,732.26,1306.01,731.22,1305,731.22z"/>
	<path class="st15" d="M798.39,272.62c-0.08-0.21-0.27-0.21-0.45-0.22c-1.83-0.06-3.65-0.14-5.47-0.41c-0.3-0.05-0.6-0.11-0.88-0.22
		c-0.5-0.2-1-0.2-1.51-0.06c-0.28,0.08-0.56,0.09-0.84,0.09c-0.92,0-3.54-0.9-4.89-1.13c-0.31-0.05-0.55-0.29-0.63-0.59
		c-1.33-5.24-4.17-17-4.54-20.87c-0.47-4.94-3.89-27.24-3.89-27.24l-9.14,2.55c0,0,3.76,16.46,4.8,24.43
		c0.8,6.16,6.96,19.24,8.89,23c0.94,2.8,3.06,2.88,3.55,2.94c0.28,0.03,0.54,0.17,0.72,0.39c0.33,0.39,0.72,0.73,1.15,1
		c0.32,0.2,0.57,0.47,0.79,0.78c0.39,0.57,0.73,1.16,1.08,1.75c0.23,0.39,0.47,0.52,0.8,0.43c0.36-0.1,0.54-0.37,0.53-0.81
		c-0.01-0.65-0.22-1.24-0.55-1.8c-0.31-0.52-0.28-0.82,0.07-1.3c0.21-0.28,0.42-0.54,0.69-0.76c0.27-0.22,0.56-0.39,0.93-0.34
		c0.66,0.16,1.32,0.3,1.99,0.37l0.55,0.11c0.02,0,0.3,0.06,0.3,0.06c0.05,0.01,1.02,0.12,1.35,0.12c0.27,0,0.7,0.02,1.07,0.04
		c0.33,0.02,1.04-0.16,1.06-0.16c0.32-0.01,0.61-0.12,0.85-0.34c0.1-0.09,0.19-0.19,0.14-0.34c-0.05-0.14-0.16-0.2-0.3-0.22
		c-0.22-0.04-1.35-0.18-1.34-0.23c0.34,0,1.39-0.02,1.73-0.03c0.45-0.01,0.85-0.17,1.16-0.51
		C798.33,272.97,798.47,272.83,798.39,272.62z"/>
	<path class="st25" d="M769.76,210.33c4.51-0.82,8.23,19.35,8.23,19.35s-10.02,2.8-12.58,1.33c0,0-2.91-12.91-3.96-12.46
		L769.76,210.33z"/>
	<path class="st17" d="M660.74,572.95c0.3-0.86-3.86-1.55-4.08-2.41c-0.22-0.87,5.25-0.93,5.45-1.69c0.36-1.4-6-0.29-5.87-0.95
		c0.13-0.65,6.63-2.12,5.92-3.24c-0.7-1.12-6.58,2.22-6.76,1.46c-0.18-0.76,5.75-2.62,5.64-4.29c-0.06-0.89-9.73,4.45-10.85,3.97
		c-1.12-0.49,1.21-4.68,0.31-5.31s-3.46,8.53-4.07,8.84c-0.61,0.3-13.68,7.76-18.33,8.95c-0.56-1.56-1.78-3.66-2.28-5.13
		c-2.61,1.86-4.54,2.79-7.24,4.48c1.95,4.89,4.73,10.24,6.08,10.85c4.14,1.87,20.13-11.4,23.33-13.67c3.2-2.27,5.03-1.54,7.19-2.25
		C657.34,571.83,660.44,573.8,660.74,572.95z"/>
	<path class="st11" d="M618.03,579.97c0,0-3.58-15.81-2.96-20.4c0.62-4.59,6.07-8.86,9.85-7.28c3.78,1.59,5.49,23.66,5.49,23.66
		L618.03,579.97z"/>
</g>
</svg>
