<?xml version="1.0" encoding="utf-8"?>
<!-- Generator: Adobe Illustrator 24.1.0, SVG Export Plug-In . SVG Version: 6.00 Build 0)  -->
<svg version="1.1" id="Capa_1" xmlns="http://www.w3.org/2000/svg" xmlns:xlink="http://www.w3.org/1999/xlink" x="0px" y="0px"
	 viewBox="0 0 1366 768" style="enable-background:new 0 0 1366 768;" xml:space="preserve">
<style type="text/css">
	.st0{fill:url(#SVGID_1_);}
	.st1{fill:#26316A;}
	.st2{fill:#F19492;}
	.st3{fill:#22264E;}
	.st4{fill:#673C8F;}
	.st5{fill:#E84C48;}
	.st6{fill:#EE7B79;}
	.st7{fill:url(#SVGID_2_);}
	.st8{fill:#EE785C;}
	.st9{fill:#ED7576;}
	.st10{fill:#C0D0EC;}
	.st11{fill:#7A4593;}
	.st12{fill:url(#SVGID_3_);}
	.st13{fill:#DDDAEE;}
	.st14{fill:#B2C6E8;}
</style>
<linearGradient id="SVGID_1_" gradientUnits="userSpaceOnUse" x1="451.7782" y1="167.2118" x2="451.7782" y2="-0.111">
	<stop  offset="0" style="stop-color:#EE785C"/>
	<stop  offset="1" style="stop-color:#E73768"/>
</linearGradient>
<path class="st0" d="M0,132.48c0,0,283.44,92.29,519.15-24.02S903.56,0,903.56,0L0-0.11V132.48z"/>
<g>
	<g>
		<path class="st1" d="M968.48,706.44c-26.52-4.27-46.54,5.02-65.79,2.35c-15.35-2.13-23.35-17.66-43.98-22.06
			c4.91-2.89,10.62-6.51,13.36-9.15c5.31-5.11,12.94-15.34,0-15.74c-9.31-0.29-16.55,15.21-19.89,23.93
			c-3.05-0.26-6.36-0.28-9.96-0.01c4.26-13.72,12.56-40.29,14.59-45.39c2.76-6.94-8.85-30.1-22.53-4.11
			c-9.6,18.22-3.08,39.28,1.67,50.24c-3.75,0.6-7.29,1.48-10.67,2.53c-11.31-25.8-47.28-99.35-86.27-90.21
			c-42.51,9.96,48.56,59.41,71.53,96.07c-18.76,8.7-35.25,19.26-63.75,11.55c-75.74-20.5-81.75,25.63-81.75,25.63l338.47,0.12
			C1003.51,732.19,995,710.71,968.48,706.44z"/>
		<g>
			<path class="st2" d="M876.41,540.43c0.35,3.26,4.96,3.14,10.17,2.36c5.21-0.78,3.86,0.59,11.19,0.45
				c7.32-0.14,9.77-2.65,10.09-3.7c0.29-0.94-3.27-1.6-7.07-2.4c-0.48-0.1-0.96-0.2-1.44-0.31c-4.29-0.94-7.21-4.03-10.94-6.69
				c-3.54-2.52-5.92-14.06-5.92-14.06l-10.41-0.06c0,0,3.27,10.44,4.98,14.07c1,2.13-0.07,4.88-0.4,6.93
				C876.46,538.14,876.28,539.28,876.41,540.43z"/>
			<path class="st3" d="M886.57,542.79c5.21-0.78,3.86,0.59,11.19,0.45c7.32-0.14,9.77-2.65,10.09-3.7c0.29-0.94-3.27-1.6-7.07-2.4
				l-0.04,0.07c0,0-4.63,2.69-10.68,2.28c-4.93-0.33-10.01-2.21-13.42-2.47c-0.18,1.12-0.36,2.26-0.23,3.41
				C876.76,543.69,881.37,543.57,886.57,542.79z"/>
			<path class="st2" d="M795,539.91c0.23,3.27,4.84,3.32,10.07,2.74c5.23-0.58,3.84,0.73,11.16,0.87c7.32,0.13,9.86-2.28,10.22-3.32
				c0.32-0.93-3.2-1.73-6.97-2.66c-0.47-0.12-0.95-0.24-1.43-0.36c-4.25-1.1-7.05-4.3-10.68-7.1c-3.44-2.65-0.61-13.64-0.61-13.64
				l-7.9-3.73c0,0-1.09,11.33-1.67,17.06c-0.24,2.35-1.41,4.7-1.82,6.75C795.15,537.63,794.92,538.76,795,539.91z"/>
			<path class="st3" d="M805.07,542.65c5.23-0.58,3.84,0.73,11.16,0.87c7.32,0.13,9.86-2.28,10.22-3.32
				c0.32-0.93-3.2-1.73-6.97-2.66l-0.05,0.07c0,0-4.73,2.51-10.76,1.88c-4.91-0.51-9.92-2.59-13.31-2.97
				c-0.22,1.11-0.44,2.25-0.36,3.4C795.23,543.18,799.84,543.24,805.07,542.65z"/>
			<path class="st4" d="M812.75,376.78c0,0-2.19,10.6-4.38,64.34c0,0-4.06,9.95-7.01,22.12c-2.95,12.17-5.03,62.93-5.03,62.93
				s1.18,1.7,4.75,1.91c2.92,0.17,5.18-1.1,5.18-1.1s20.5-66.49,30.48-92.31c9.98-25.81,15.82-62.67,15.82-62.67L812.75,376.78z"/>
			<path class="st4" d="M837.41,381.32c0,0,1.62,10.7,18.17,61.87c0,0-0.37,10.74,1.08,23.18c1.45,12.44,18.2,61.39,18.2,61.39
				s2.22,0.77,5.56-0.11c3.1-0.82,5.53-2.69,5.53-2.69s-6.42-69.98-6-97.65c0.42-27.67-6.85-64.28-6.85-64.28L837.41,381.32z"/>
			<path class="st5" d="M866.72,233.11c-2.59-1.65-5.78-1.98-8.03-1.96c0.61-0.57,1.75-0.73,1.75-0.73
				c-1.38-0.28-4.54,0.95-4.54,0.95c-18.93-8.4-23.39,19.87-23.31,26.49c0.07,6.62-0.26,14.23-10.19,19.67
				c-19.54,10.7-4.56,31.85-4.56,31.85c-3.52,10.09,9.51,22.46,9.51,22.46c-0.22-5.36,24.38-39.51,37.65-47.3
				c3.36-4.45,4.87-12.52,4.99-13.16c-0.86,6.42-2.15,9.98-3.23,11.97C878.12,273.87,873.59,237.48,866.72,233.11z"/>
			<path class="st2" d="M862.59,280.87c0.07,0.03-6.21,3.29-10.93,2c-4.44-1.21-7.34-6.97-7.28-6.98c1.88-0.37,2.42-2.96,2.38-14.06
				l0.85,0.17l13.78,2.73l0.51,0.1c0,0-0.33,4.5-0.34,8.73c0,0.9,0.01,1.78,0.04,2.61C861.71,278.63,861.98,280.59,862.59,280.87z"
				/>
			<path class="st6" d="M861.57,273.56c0,0.9,0.01,1.78,0.04,2.61c-8.01-0.32-12.63-9.49-14.38-13.51l14.16,2.07l0.51,0.1
				C861.91,264.83,861.58,269.33,861.57,273.56z"/>
			<path class="st5" d="M846.14,260.44c0,0-4.19-6.62-5.2-12.28c-0.72-4.04,1.34-19.02,16.4-16.87c0,0,4.37,0.43,8.48,3.21
				c3.27,2.21,7.99,6.97,2.71,20.05l-1.37,4.42L846.14,260.44z"/>
			<path class="st2" d="M862.75,271.49c0,0-18.76-2.48-17.03-14.14c1.72-11.66,0.46-19.83,12.51-18.74
				c12.05,1.09,13.71,5.88,14.08,9.91C872.68,252.55,867.67,271.83,862.75,271.49z"/>
			<path class="st5" d="M866.79,239.59c0,0-7.16,12.91-15.32,13.76c-8.16,0.85-11.26-1.76-11.26-1.76s6.75-3.89,9.24-12.07
				C849.45,239.52,863.9,232.51,866.79,239.59z"/>
			<path class="st5" d="M865.36,240.51c0,0,3.37,3.62,3.86,6.73c0.49,3.11,0,9.28,1.81,9.34c0,0,5.25-8.72,1.69-14.62
				C868.95,235.7,865.36,240.51,865.36,240.51z"/>
			<path class="st5" d="M989.93,398.91c-3.94-8.34-14.88-15.23-24.09-15.24c-6.81,0-12.81,2.32-17.46,6.11
				c-2.66,2.16-6.66,0.74-7.38-2.61l-8.07-37.49c-1.18-5.47-6.56-8.94-12.03-7.77l-130.55,28.1c-5.34,1.15-8.74,6.41-7.59,11.75
				l28.07,130.41c0.8,3.73,3.54,6.54,6.93,7.63l-1.71,0.49h5.07l0.04-0.01c0.62-0.02,1.25-0.09,1.88-0.22l2.84-0.61l0,0l0,0
				l33.51-7.21c4.7-1.01,6.61-6.7,3.45-10.33c-3.05-3.5-5.25-7.84-6.18-12.76c-2.64-13.85,5.93-27.57,19.53-31.26
				c15.14-4.1,30.42,5.35,33.68,20.48c1.23,5.69,0.57,11.35-1.55,16.33c-0.82,1.93-0.14,3.94,1.27,5.09l-1.95,0.95l4.53,0v0
				c0.34,0.01,0.69-0.02,1.05-0.1l40.01-8.61c5.47-1.18,8.95-6.56,7.77-12.03l-8.02-37.25c-0.74-3.45,2.4-6.47,5.82-5.59
				c3.95,1.01,8.19,1.15,12.45,0.24C987.96,433.78,997.75,415.46,989.93,398.91z"/>
			<linearGradient id="SVGID_2_" gradientUnits="userSpaceOnUse" x1="777.928" y1="430.979" x2="988.0546" y2="430.979">
				<stop  offset="0" style="stop-color:#EE785C"/>
				<stop  offset="1" style="stop-color:#FDEDE8"/>
			</linearGradient>
			<path class="st7" d="M961.23,383.67c-6.81,0-12.81,2.32-17.46,6.11c-2.66,2.16-6.66,0.74-7.38-2.61l-8.07-37.49
				c-1.18-5.47-6.56-8.94-12.03-7.77l-130.55,28.1c-5.34,1.15-8.74,6.41-7.59,11.75l28.07,130.41c1.19,5.54,6.66,9.07,12.2,7.88
				l36.35-7.82c4.7-1.01,6.61-6.7,3.45-10.33c-3.05-3.5-5.25-7.84-6.18-12.76c-2.64-13.85,5.93-27.57,19.53-31.26
				c15.14-4.1,30.42,5.35,33.68,20.48c1.23,5.69,0.57,11.35-1.55,16.33c-1.38,3.24,1.45,6.68,4.89,5.94l40.01-8.61
				c5.47-1.18,8.95-6.56,7.77-12.03l-8.02-37.25c-0.74-3.45,2.4-6.47,5.82-5.59c3.95,1.01,8.19,1.15,12.45,0.24
				c16.74-3.6,26.53-21.93,18.71-38.48C981.39,390.57,970.45,383.67,961.23,383.67z"/>
			<path class="st2" d="M913.46,334.09c0,0,8.14,1.33,10.28,6.63c2.13,5.3-0.85,8.88-1.99,8.87c-1.15-0.01-3.34-0.86-4.37-3.61
				C916.34,343.24,913.46,334.09,913.46,334.09z"/>
			<path class="st2" d="M801.36,357.72c0,0,9.14-0.01,12.43,5.39c3.29,5.4,0.68,9.86-0.58,10.05c-1.26,0.19-3.81-0.34-5.43-3.15
				C806.16,367.2,801.36,357.72,801.36,357.72z"/>
			<path class="st1" d="M913.69,340.24c-0.81-0.17-4.35-0.59-8.86-1.3c-8.3-1.3-19.87-3.59-23.75-7.18
				c-1.05-0.97-3.5-6.32-6.05-12.45c-2.58,13.58-2.72,23.99-2.04,31.92L816.9,363.3c4.81-9.72,12.25-21.78,10.86-31.54
				c-0.52-3.62-2.5-8.58-3.24-14.16c-0.06-0.48-0.12-0.96-0.16-1.45c-7.87,6.48-16.95,13.62-17.17,15.05
				c-0.36,2.4,5.76,28.91,5.76,28.91c-1.52,3.5-8.13,2.76-8.13,2.76c-6.19-4.42-15.3-29.47-14.56-35.02
				c0.73-5.55,23.3-37.18,28.76-44.73c5.4-7.47,25.1-7.28,25.57-7.28h0c0,0,0,0,0.01,0c15.67,9.41,17.08,1.59,17.08,1.59
				s14.14,2.69,16.57,6.86c2.43,4.18,13.08,35.84,13.84,36.96c1.58,2.33,27.33,11.66,27.79,14.36
				C920.35,338.33,916,340.73,913.69,340.24z"/>
			<path class="st3" d="M836.46,359.11l-19.56,4.19c4.87-9.7,11.27-21.77,9.87-31.47c-0.52-3.62-1.7-7.9-2.26-13.51
				c-0.05-0.54-0.15-2.17-0.15-2.17s13.85,10.9,14.09,22.7C838.58,344.98,837.51,352.98,836.46,359.11z"/>
			<path class="st3" d="M905.35,339.01c-8.4-1.3-20.11-3.6-24.04-7.18c-1.07-0.97-3.55-6.33-6.12-12.47c0,0-0.9-9.87,1.68-9.5
				c2.58,0.37,6.38,17.88,9.09,18.98C888.37,329.83,901.78,334.98,905.35,339.01z"/>
		</g>
		<g id="man_1_">
			<g>
				<path class="st3" d="M1319.17,715.05c-1.18,3.99-6.65,6.65-7.39,11.53c-0.36,2.38-1.25,4.23-2.37,5.5h-17.02
					c0.17-0.94,0.92-1.95,3.13-2.43c4.73-1.03,6.51-6.76,6.22-12.08c-0.12-2.23-0.07-4.77,0.04-6.97c0.15-3.05,0.4-5.44,0.4-5.44
					l10.05-2.36l1.06,1.36l1.01,1.3C1314.29,705.45,1320.35,711.06,1319.17,715.05z"/>
				<path class="st3" d="M1239.91,732.08h-34.43c0.78-0.91,2.1-1.8,4.34-2.16c5.3-0.86,14.48-3.94,16.52-10.71
					c0.07-0.22,0.13-0.44,0.18-0.67c1.62-7.24,13.45,2.22,13.45,2.22s0.04,0.29,0.09,0.78
					C1240.26,723.58,1240.72,729.11,1239.91,732.08z"/>
				<path class="st8" d="M1211.23,540.25c0,0,1.8,22.4,3.91,49.32c2.87,36.58,6.32,81.5,6.66,90.02
					c0.59,14.78,2.96,38.42,2.96,38.42s5.61,5.62,16.84,3.25c0,0,10.01-33.75,12.87-69.45c0.04-0.59,0.09-1.17,0.13-1.76
					c2.66-36.35,6.8-112.89,6.8-112.89L1211.23,540.25z"/>
				<path class="st5" d="M1211.23,540.25c0,0,1.8,22.4,3.91,49.32l39.33,62.23c0.04-0.59,0.09-1.17,0.13-1.76
					c2.66-36.35,6.8-112.89,6.8-112.89L1211.23,540.25z"/>
				<path class="st8" d="M1219.42,542.91c0,0,32.36,81.12,53.64,119.25c21.28,38.12,27.93,48.76,27.93,48.76s12.19-4.88,13.3-8.2
					c0,0-8.14-73.6-22.39-91.54c-8.05-10.14-17.51-40.56-17.95-51.2c-0.44-10.64-2.88-31.7-2.88-31.7L1219.42,542.91z"/>
			</g>
			<path class="st9" d="M1236.02,417.69c-1.44-8.5-1.48-13.53-1.48-13.53l16.42-13.23c-0.61,18.19,11.05,26.94,11.05,26.94
				s-21.88,10.77-34.53,6.78C1227.48,424.65,1230.59,420.67,1236.02,417.69z"/>
			<path class="st6" d="M1230.67,403.86c0,0,20.89,3.47,22.85-9.57c1.96-13.04,5.98-21.38-7.28-24.14
				c-13.25-2.77-16.6,1.82-18.31,6.01C1226.22,380.35,1225.29,402.62,1230.67,403.86z"/>
			<g>
				<path class="st10" d="M1157.31,430.74l-4.45-2.75c0,0-5.54-8.18-15.02-3.1c0,0-3.75,2.39-1.23,4.39c2.52,2,1.84,0.87,5.33,3.77
					c3.49,2.9,8,3.94,10.91,2.34l3.73-0.35L1157.31,430.74z"/>
				<path class="st4" d="M1152.03,431.6c1.14-3.58,1.69-3.9,1.69-3.9s35.96,4.25,39.35,4.5c3.39,0.25,50.47-9.45,50.47-9.45
					l22.23,27c0,0-65.55,2.47-74.13,1.67c-14.18-1.33-39.88-14.53-39.88-14.53S1151.13,434.41,1152.03,431.6z"/>
			</g>
			<path class="st11" d="M1273.53,532.43c0.06,1.39-2.81,2.92-4.05,3.48c-9.39,4.21-18.13,7.13-28.01,8.08
				c-11.72,1.2-25.56-1.43-30.31-1.37c-0.51,0-0.95-0.19-1.33-0.51c-0.32-0.25-0.57-14.57-0.32-32.61c0-0.7,0-1.46,0.06-2.16v-0.25
				c0.02-1.88,0.05-3.79,0.09-5.72c0.12-5.27,0.32-10.69,0.55-16.07c0.34-7.93,0.81-15.73,1.47-22.63
				c0.68-7.21,1.55-13.46,2.65-17.89c2.53-10.2,8.36-16.91,13.68-21.85l4.37-3.86c4.37,0.88,8.99,0.63,13.61-1.65
				c5-2.47,10.45-5.13,11.33-4.5c6.75,5.05,11.3,16.5,13.63,31.06c1.25,7.84,1.86,16.57,1.83,25.69c-0.01,3.5-0.12,7.05-0.32,10.63
				c-1.13,19.23,0.03,35.9,0.69,45.59C1273.34,528.68,1273.49,530.9,1273.53,532.43z"/>
			<path class="st3" d="M1162.5,354.67l-132.09-20.98c-5.62-0.89-10.89,2.94-11.79,8.55l-5.85,36.82c-0.27,1.71,0.16,6.5,0.16,6.5
				l4.76,0.71c0.27,0.06,0.55,0.1,0.82,0.12l0,0l0,0c0.86,0.07,1.76-0.04,2.66-0.36c4.38-1.59,9.23-2.07,14.17-1.16
				c13.9,2.55,23.63,15.52,22.15,29.58c-1.65,15.64-16.02,26.51-31.35,24.08c-5.77-0.92-10.82-3.58-14.71-7.37
				c-0.75-0.73-1.66-1.12-2.58-1.22l0,0l-4.98-0.75l-6.2,44.91c-0.88,5.54,2.9,10.74,8.44,11.62l37.74,5.99
				c3.49,0.55,5.18,4.59,3.12,7.46c-2.38,3.33-4.04,7.24-4.73,11.55c-2.69,16.96,10.89,32.74,29.21,31.43
				c9.22-0.66,19.63-8.39,22.97-17.01c2.47-6.36,2.47-12.82,0.61-18.53c-1.06-3.27,1.72-6.5,5.12-5.96l37.97,6.03
				c5.54,0.88,10.74-2.9,11.62-8.43l21-132.24C1171.59,360.61,1167.9,355.53,1162.5,354.67z"/>
			<path class="st4" d="M1257.8,443.6c0,0-10.13,47.25-48.14,57.78c0.12-5.27,0.32-10.69,0.55-16.07
				c0.34-7.93,0.81-15.73,1.47-22.63c0.68-0.35,1.32-0.62,1.9-0.81C1226.47,457.61,1257.8,443.6,1257.8,443.6z"/>
			<path class="st1" d="M1089.53,524.41c2.47-6.36,2.47-12.82,0.61-18.53c-1.06-3.27,1.72-6.5,5.12-5.96l37.97,6.03
				c5.54,0.88,10.74-2.9,11.62-8.43l21-132.24c0.86-5.41-2.83-10.49-8.24-11.35l-132.09-20.98c-5.62-0.89-10.89,2.94-11.78,8.55
				l-5.85,36.82c-0.76,4.76,3.87,8.61,8.41,6.97c4.38-1.59,9.23-2.07,14.17-1.16c13.9,2.55,23.63,15.52,22.15,29.58
				c-1.65,15.64-16.02,26.51-31.35,24.07c-5.77-0.92-10.82-3.58-14.71-7.37c-2.53-2.46-6.77-1.06-7.33,2.42l-6.44,40.52
				c-0.88,5.54,2.9,10.74,8.44,11.62l37.74,5.99c3.49,0.55,5.18,4.59,3.12,7.46c-2.38,3.33-4.04,7.24-4.73,11.55
				c-2.69,16.96,10.89,32.74,29.21,31.43C1075.78,540.76,1086.19,533.03,1089.53,524.41z"/>
			<g>
				<path class="st6" d="M1157.46,461.21l-5.43-0.9c0,0-6.19-8.96-16.98-3.93c0,0-4.28,2.39-1.45,4.63c2.83,2.24,2.08,1.01,6,4.25
					c3.92,3.24,9.02,4.53,12.34,2.95l4.23-0.22L1157.46,461.21z"/>
				<path class="st11" d="M1153.31,463.97c0.18-4,2.3-4.42,2.3-4.42s41.14-2.72,44.69-3.41c3.55-0.69,36.32-27.84,36.32-27.84
					s12.67-11.39,21.55-7.55c7.72,3.34,10.13,9.93,10.52,15.99c0.46,7.22-3.61,13.97-10.17,17.03
					c-14.72,6.87-44.15,20.37-50.85,21.53c-14.92,2.59-53.26-5.71-53.26-5.71S1153.17,467.1,1153.31,463.97z"/>
			</g>
			<path class="st3" d="M1227.93,376.16c0,0-8.48-6.29-2.95-16.05c0,0,6.67,2.21,16.14,0c9.47-2.21,17.95,0.92,19.06,4.24
				c0,0,3.69,1.47,4.05,7c0.37,5.53-10.72,22.94-10.72,22.94s-2.37-2.95-1.72-4.97c0.64-2.03,2.67-6.54,0.18-6.54
				s-3.32,3.69-4.33,2.21c-1.01-1.47,0.83-7.65-2.12-8.66C1242.58,375.31,1231.25,378.02,1227.93,376.16z"/>
		</g>
		<path class="st5" d="M939.79,727.37l-37.34-169.54h10.28c2.44,0,4.43-1.99,4.43-4.43v-5.73c0-2.44-1.99-4.43-4.43-4.43H782.34
			c-2.44,0-4.43,1.99-4.43,4.43v5.73c0,2.44,1.99,4.43,4.43,4.43h13.23l-37.34,169.54c-0.5,2.28,0.95,4.56,3.22,5.06
			c2.27,0.5,4.54-0.95,5.04-3.23l37.74-171.37h89.54l37.74,171.37c0.5,2.28,2.77,3.73,5.04,3.23l0,0
			C938.84,731.93,940.29,729.65,939.79,727.37z"/>
		<g>
			<path class="st1" d="M1187.41,623.55c-13.82-13.27-63.58,70.45-63.58,70.45S1201.23,636.82,1187.41,623.55z"/>
			<path class="st1" d="M1185.75,662.25c-12.24-4.89-51.34,36.33-60.14,45.85c-6.74-0.9-14.13-1.48-22.23-1.62
				c-61.92-1.11-90,26.94-90,26.94L1186.1,734c0,0-15.3-19.43-58.71-25.66c10.6-5.01,41.97-19.6,53.38-22.4
				C1194.59,682.54,1199.57,667.77,1185.75,662.25z"/>
		</g>
		<g>
			<path class="st5" d="M1137.03,578.22h-37.28c-4.82,0-7.89,5.17-5.56,9.39c2.25,4.08-5.67,39.4-22.37,40.33
				c-15.7,0.87-28.69-11.66-28.69-27.18c0-5.84,1.84-11.25,4.97-15.68c2.03-2.88-0.02-6.86-3.54-6.86h-41.03
				c-5.61,0-10.15,4.55-10.15,10.15c0,0-3.72,44.04-6.88,42.46c-3.26-1.63-6.89-2.62-10.73-2.82l0,0h-0.04
				c-0.46-0.02-0.92-0.04-1.38-0.04c-0.47,0-7.22-0.12-7.22-0.12l-1.02,54.42l5.87,0.06c5.58-0.17,10.42-0.69,14.72-2.88
				c3.06-1.56,6.69,0.68,6.69,4.12v38.45c0,5.61,4.54,10.15,10.15,10.15h133.9c5.48,0,9.92-4.44,9.92-9.92V588.52
				C1147.33,582.83,1142.72,578.22,1137.03,578.22z"/>
			<linearGradient id="SVGID_3_" gradientUnits="userSpaceOnUse" x1="939.8896" y1="655.0912" x2="1140.1079" y2="655.0912">
				<stop  offset="0" style="stop-color:#EE785C"/>
				<stop  offset="1" style="stop-color:#FDEDE8"/>
			</linearGradient>
			<path class="st12" d="M961.06,681.66c6.67,1.44,13.05,0.43,18.4-2.3c3.06-1.56,6.69,0.68,6.69,4.12v38.45
				c0,5.61,4.54,10.15,10.15,10.15h133.9c5.48,0,9.92-4.44,9.92-9.92V588.41c0-5.69-4.61-10.3-10.3-10.3h-37.28
				c-4.82,0-7.89,5.17-5.56,9.39c2.25,4.08,3.49,8.79,3.37,13.81c-0.34,14.13-11.63,25.77-25.74,26.52
				c-15.7,0.83-28.69-11.66-28.69-27.18c0-5.84,1.84-11.25,4.97-15.68c2.03-2.88-0.02-6.86-3.54-6.86H996.3
				c-5.61,0-10.15,4.55-10.15,10.15v38.21c0,3.54-3.72,5.83-6.88,4.25c-3.66-1.83-7.78-2.86-12.15-2.86
				c-17.17,0-30.63,15.9-26.46,33.77C942.75,670.64,952.02,679.71,961.06,681.66z"/>
		</g>
		<path class="st1" d="M573.37,732.82l24.06,0.18c0,0-0.84-5.82-17.04-7.32l0,0c-6.28-17.45-24.73-64.38-40.75-62.16
			c-15.82,2.19,21.65,45.25,36.89,61.98c-2.16,0-4.17,0.18-6.02,0.48c-3.67-7.31-10.95-17.64-22.63-17.17
			c-12.43,0.5,4.51,11.86,16.17,18.83c-5.91,2.12-9.1,5.05-9.1,5.05l18.15,0.13c0.21,0.12,0.33,0.18,0.33,0.18
			S573.41,732.94,573.37,732.82z"/>
		<g>
			<g>
				<path class="st6" d="M659.35,538.36l3.56,2.89c0,0,9.74-3.49,11.94,8.08c0,0,0.59,4.93-2.54,4.94
					c-3.12,0.01-1.84-0.54-6.26-0.41c-4.42,0.13-8.09-2.2-8.74-5.79l-2.12-3.04L659.35,538.36z"/>
				<path class="st13" d="M658.95,544.57c2.84-2.97,2.61-5.16,2.61-5.16s-32.89-26.93-36.23-29.13c-2.27-1.5-26.5-22.97-37.82-36.06
					c-5.62-6.49-12.57-3.97-20.54-1.69l-6.56,1.88c-7.92,2.27-9.97,13.34-3.48,18.72c18.29,15.15,48.72,32.19,54.41,35.77
					c14.13,8.89,41.8,19.46,41.8,19.46S656.51,547.11,658.95,544.57z"/>
			</g>
			<path class="st4" d="M697.45,709.75c0,0,7.98,5.98,20.21,2.82c0,0,9.86-2.25,12.03,2.67c0,0-15.13,7.68-18.95,9.79
				c-2.88,1.58-5.89,4.08-8.02,6.02c-1.68,1.53-4.31,1.32-5.74-0.44c-0.67-0.82-1.43-1.79-2.26-2.92
				c-2.33-3.16-7.77-13.37-7.77-13.37L697.45,709.75z"/>
			<path class="st10" d="M701.18,706.99c0,0-4.86,11.21-16.08,9.15c0,0-22.9-18.91-38.6-38.55c-5.1-6.38-9.44-12.84-12-18.75
				c-10.41-24.11-38.53-60.08-56.4-78.31l44.72-16.18c0,0,14.32,28.81,33.38,64.2C669.93,654.06,686.12,682.98,701.18,706.99z"/>
			<path class="st14" d="M656.19,628.56l-9.7,49.03c-5.1-6.38-9.44-12.84-12-18.75c-10.41-24.11-38.53-60.08-56.4-78.31l44.72-16.18
				C622.81,564.36,637.14,593.17,656.19,628.56z"/>
			<path class="st4" d="M619.53,716.11c0,0-0.49,8.94,10.35,10.14c0,0,6.2,0.03,6.21,5.73l-31.51,0.1c0,0-0.91-2.3-1.14-7.21
				c-0.17-3.78,3.66-13.65,3.66-13.65L619.53,716.11z"/>
			<path class="st10" d="M608.15,564.36c0,0,19.92,21.89,32.57,61.32c6.88,21.46-12.61,75.4-16.41,94.14c0,0-13.07,1.11-22.01-2.35
				c0,0-0.68-38.71,4.55-68.55c2.93-16.7-26.23-35.71-38.97-65.89c-8.67-20.53,1.88-20.18,14.83-20.67L608.15,564.36z"/>
			<path class="st2" d="M585.15,466.7c-11.08,6.26-33.77,0.49-33.77,0.49s9.21-10.53,5.03-27.5l8.7,4.42l9.35,4.75
				c0,0,0.6,3,1.02,8.38c0.11,1.39,0.2,2.93,0.27,4.63C581.44,463.58,585.15,466.7,585.15,466.7z"/>
			<path class="st8" d="M625.79,563.23c0,1.95-2.24,2.88-2.72,2.98c-4.47,0.82-16.95,5.67-28.2,6.79
				c-9.47,0.99-18.26,0.05-27.91-1.89c-1.28-0.26-4.28-1.07-4.49-2.29c-0.27-1.34-37.25-75.39-8.5-107.2
				c0.68-0.75,6.35,0.6,11.54,1.83c4.79,1.14,9.19,0.5,13.12-1.07l4.87,2.56c5.98,3.33,17.29,15.16,18.61,24.45
				c0.67,4.72,3.37,8.22,4.15,12.37c0.29,1.54,0.59,3.04,0.89,4.5c0.59,2.87,1.2,5.6,1.82,8.19c1.69,7.02,3.48,13.07,5.23,18.29
				c1.86,5.55,3.69,10.16,5.33,14.01c2.12,5,3.91,8.74,5.03,11.61C625.34,560.37,625.79,561.95,625.79,563.23z"/>
			<path class="st5" d="M624.55,558.35c-52.21-24.6-70.29-71.83-70.29-71.83s42.42,15.65,52.88,19.72c0.59,2.87,1.2,5.6,1.82,8.19
				c1.69,7.02,3.48,13.07,5.23,18.29c1.86,5.55,3.69,10.16,5.33,14.01C621.64,551.75,623.43,555.49,624.55,558.35z"/>
			<path class="st3" d="M772.01,506.04l-11.18-35.46c-1.09-3.44-4.65-5.07-7.76-4.2l0,0l-0.01,0c-0.17,0.05-0.33,0.1-0.49,0.16
				l-3.92,1.31c0,0-6.14,6.32-10.55,7.6c-13.54,3.92-26.4-3.3-31.34-16.5c-5.5-14.69,0.88-30.82,15.64-35.47
				c5.05-1.59,14.99,1.38,14.99,1.38l3.99-1.33c2.17-0.66,3.66-3,2.88-5.45l-12.31-39.03c-1.68-5.33-7.37-8.3-12.71-6.61
				l-36.34,11.46c-3.36,1.06-6.67-1.79-6.11-5.27c0.64-4.03,0.38-8.26-0.93-12.41c-5.15-16.33-24.31-24.36-40.06-15.03
				c-7.93,4.7-13.78,16.23-12.92,25.41c0.63,6.78,3.51,12.54,7.71,16.81c2.4,2.44,1.36,6.57-1.91,7.6l-36.57,11.53
				c-5.33,1.68-8.29,7.37-6.61,12.7l40.16,127.36c1.64,5.21,7.2,8.1,12.41,6.46l127.22-40.12
				C770.72,517.22,773.72,511.45,772.01,506.04z"/>
			<path class="st1" d="M619.03,377.88c0.63,6.78,3.51,12.54,7.71,16.81c2.4,2.44,1.35,6.57-1.91,7.6l-36.57,11.53
				c-5.33,1.68-8.29,7.37-6.61,12.7l40.16,127.36c1.64,5.21,7.2,8.1,12.41,6.46l127.22-40.12c5.41-1.71,8.41-7.47,6.71-12.88
				l-11.18-35.46c-1.45-4.59-7.29-5.96-10.6-2.47c-3.2,3.37-7.32,5.96-12.12,7.35c-13.54,3.92-28-3.33-32.94-16.53
				c-5.5-14.69,2.48-30.79,17.25-35.45c5.55-1.75,11.25-1.63,16.41,0.02c3.35,1.07,6.52-2.07,5.46-5.43l-12.31-39.03
				c-1.68-5.33-7.37-8.29-12.7-6.61l-36.34,11.46c-3.36,1.06-6.67-1.79-6.11-5.27c0.64-4.03,0.38-8.26-0.93-12.41
				c-5.15-16.33-24.31-24.36-40.06-15.03C624.01,357.16,618.17,368.7,619.03,377.88z"/>
			<g>
				<path class="st2" d="M655.09,544.1l4.51,1.65c0,0,9.03-6.39,14.66,4c0,0,2.03,4.54-1.19,5.52c-3.22,0.99-2.05,0.06-6.58,1.57
					c-4.53,1.51-8.99,0.42-10.7-2.81l-3.07-2.25L655.09,544.1z"/>
				<path class="st8" d="M658.81,550.48c1.67-4.35,2.43-6.32,2.43-6.32s-34.09-27.79-37.56-30.17
					c-2.37-1.62-25.93-19.24-37.42-32.96c-5.7-6.81-14.68-9.92-23.37-8.1l-7.16,1.5c-8.64,1.81-11.45,12.75-4.75,18.49
					c18.88,16.18,50.72,34.95,56.65,38.86c14.74,9.69,47.33,23.27,47.33,23.27S657.5,553.89,658.81,550.48z"/>
			</g>
			<path class="st6" d="M575.48,457.23c-10.9,0.61-17.99-8.39-17.99-8.39s4.93-2.73,7.61-4.74l9.35,4.75
				C574.46,448.86,575.06,451.85,575.48,457.23z"/>
			<path class="st2" d="M580.12,446.04c0,0-16.51,11.85-23.74,1.45c-7.22-10.4-14.22-15.87-3.98-23.88
				c10.24-8.01,15.06-5.48,18.32-2.59C573.98,423.91,584.23,442.69,580.12,446.04z"/>
			<path class="st3" d="M572.47,411.64c-0.59-4-1.92-6.81-1.92-6.81s-1.04,4.29-8.88,3.7c-7.85-0.59-20.28,0.77-24.42,9.71
				c-0.26,0.57-0.5,1.16-0.71,1.75c-0.75-1.98-0.93-4.95-0.93-4.95c-1.49,3.85,0,8.66,0,8.66h0c-0.02,0.14-0.04,0.28-0.06,0.42
				c-1.73,1.46-3.19,6.01-3.19,6.01c0.52-1.27,1.8-2.1,2.93-2.61c-0.04,6.96,2.79,13.76,7.74,15.78c7.24,2.96,7.18,0.7,14.47,5.53
				c0,0,1.95-2.42,0.62-4.05c-1.33-1.63-6.37-4-3.55-6.37c2.81-2.37,3.85,0.3,4.88-1.33c1.04-1.63-4.14-6.37,2.52-10.81
				C568.62,421.85,573.07,415.63,572.47,411.64z"/>
		</g>
		<path class="st14" d="M997.59,732.14c0,0-8.35-12.34-21.42-11.35c-3.97,0.3-10.43,1.27-17.92,2.3
			c-5.65-19.73-21.24-66.63-42.26-69.27c-21.47-2.7,20.54,49.47,37.72,69.89c-3.13,0.41-6.39,0.82-9.67,1.17
			c-9.1-9.71-24.95-24.1-38.18-22.99c-13.27,1.11,11.57,14.83,29.5,23.8c-11,0.82-21.43,0.73-27.81-1.73
			c-15.61-6.04-29.96,8.19-29.96,8.19H997.59z"/>
	</g>
</g>
</svg>
